<?xml version="1.0" encoding="UTF-8" standalone="no"?>
<!-- Created with Inkscape (http://www.inkscape.org/) -->

<svg
   width="210mm"
   height="128.52603mm"
   viewBox="0 0 210 128.52603"
   version="1.1"
   id="svg1"
   inkscape:version="1.3-dev (1:1.2.0-alpha1+devel+202212031705+4648735e44)"
   sodipodi:docname="ch02-Fig_2.30.svg"
   xmlns:inkscape="http://www.inkscape.org/namespaces/inkscape"
   xmlns:sodipodi="http://sodipodi.sourceforge.net/DTD/sodipodi-0.dtd"
   xmlns="http://www.w3.org/2000/svg"
   xmlns:svg="http://www.w3.org/2000/svg">
  <sodipodi:namedview
     id="namedview1"
     pagecolor="#ffffff"
     bordercolor="#666666"
     borderopacity="1.0"
     inkscape:showpageshadow="2"
     inkscape:pageopacity="0.0"
     inkscape:pagecheckerboard="0"
     inkscape:deskcolor="#d1d1d1"
     inkscape:document-units="mm"
     inkscape:zoom="0.70733726"
     inkscape:cx="443.21149"
     inkscape:cy="284.87118"
     inkscape:window-width="1920"
     inkscape:window-height="1018"
     inkscape:window-x="0"
     inkscape:window-y="0"
     inkscape:window-maximized="1"
     inkscape:current-layer="layer1" />
  <defs
     id="defs1">
    <filter
       height="1.0832562"
       y="-0.041628089"
       width="1.0556719"
       x="-0.027835975"
       id="filter1464"
       style="color-interpolation-filters:sRGB"
       inkscape:collect="always">
      <feGaussianBlur
         id="feGaussianBlur1466"
         stdDeviation="0.59408678"
         inkscape:collect="always" />
    </filter>
  </defs>
  <g
     inkscape:label="Layer 1"
     inkscape:groupmode="layer"
     id="layer1">
    <g
       transform="matrix(1.7499609,0,0,1.7499609,-25.967522,-6.1985722)"
       id="g45677"
       style="display:inline">
      <path
         id="path45629"
         d="m 71.839026,28.022578 c -8.411654,-6.8e-5 -15.23066,6.818939 -15.230596,15.230594 v 13.090157 h 6.420797 V 51.30281 c 0,-2.629128 2.11632,-4.745448 4.745448,-4.745448 h 8.374388 c 2.629128,0 4.745445,2.11632 4.745445,4.745448 v 5.040519 0.01654 c 0.0091,-0.0054 0.01782,-0.01117 0.02687,-0.01654 h 6.148237 V 43.253172 C 87.069682,34.84152 80.250674,28.022513 71.839022,28.022578 Z"
         style="color:#000000;fill:#666666;stroke-width:0.264583" />
      <path
         id="path45631"
         style="color:#000000;opacity:0.1;fill:#000000;stroke-width:0.264583;filter:url(#filter1464)"
         d="m 83.693065,23.139108 a 5.0536324,5.2197986 0 0 0 -0.985986,0.10025 5.0536324,5.2197986 0 0 0 -3.215825,2.219502 5.0536324,5.2197986 0 0 0 -0.754475,1.88154 5.0536324,5.2197986 0 0 0 -0.09715,1.018542 5.0536324,5.2197986 0 0 0 0.25218,1.546159 c -0.493416,-0.172434 -0.998498,-0.319193 -1.513602,-0.440798 -0.03467,-0.0083 -0.06962,-0.01575 -0.104386,-0.02377 -0.229298,-0.05242 -0.460383,-0.09965 -0.693497,-0.141592 -0.08009,-0.01456 -0.159771,-0.03012 -0.240297,-0.04341 -0.113255,-0.0185 -0.226981,-0.03517 -0.341064,-0.05116 -0.136781,-0.01938 -0.274436,-0.03651 -0.412376,-0.05219 -0.06729,-0.0076 -0.133985,-0.01709 -0.201539,-0.02377 -0.214122,-0.02144 -0.429776,-0.03671 -0.646472,-0.04909 -0.05985,-0.0034 -0.119804,-0.0061 -0.179835,-0.0088 -0.229447,-0.01039 -0.459885,-0.01757 -0.691946,-0.01757 -6.721562,-5.6e-5 -12.42205,4.355745 -14.443046,10.397297 -2.464967,0.907171 -4.22819,3.278444 -4.228166,6.054412 v 4.573363 a 1.4458926,1.4458926 0 0 0 -0.962731,1.356508 1.4458926,1.4458926 0 0 0 0.248047,0.599445 1.4458926,1.4458926 0 0 0 1.197858,0.84646 1.4458926,1.4458926 0 0 0 1.445906,-1.445905 1.4458926,1.4458926 0 0 0 -0.796332,-1.176674 1.4458926,1.4458926 0 0 0 -0.16795,-0.09508 v -4.658114 c -1.3e-5,-2.10435 1.179462,-3.925175 2.913518,-4.845182 -0.283687,1.161889 -0.437709,2.374799 -0.437701,3.624067 v 13.090157 h 6.420797 v -5.040519 c 0,-2.464631 1.860061,-4.47879 4.258654,-4.721159 0.159925,-0.01614 0.322475,-0.02429 0.486794,-0.02429 h 8.374682 c 0.0073,3e-6 0.01438,0.001 0.0217,0.001 0.151588,6.8e-4 0.301239,0.0083 0.44907,0.02274 0.151437,0.01509 0.300839,0.03705 0.447519,0.06615 0,0 5.15e-4,0 5.15e-4,0 0.890109,0.176662 1.687034,0.604409 2.322857,1.20096 0.798515,0.749196 1.340416,1.766599 1.471226,2.915584 0.0014,0.01257 0.0044,0.0246 0.0057,0.03721 0.0018,0.01675 0.0025,0.03383 0.0041,0.05064 0.01324,0.141552 0.02107,0.284975 0.0217,0.429948 3.1e-5,0.0071 5.18e-4,0.01407 5.18e-4,0.02119 v 5.040519 0.01654 c 0,0 5.16e-4,0 5.16e-4,0 0.0089,-0.0053 0.01739,-0.01123 0.02635,-0.01654 h 5.16e-4 2.799313 3.348633 V 44.283552 c 2e-6,-0.228902 -0.007,-0.456237 -0.01705,-0.682646 -0.003,-0.06904 -0.0069,-0.137907 -0.01085,-0.206706 -0.01193,-0.206621 -0.02641,-0.412189 -0.04651,-0.616498 -0.0023,-0.02336 -0.0038,-0.04695 -0.0062,-0.07028 -0.02232,-0.216609 -0.05084,-0.431641 -0.08216,-0.645438 -0.01041,-0.0712 -0.02168,-0.142036 -0.03307,-0.212908 -0.02794,-0.173497 -0.05874,-0.34581 -0.0925,-0.517281 -0.01007,-0.05125 -0.01887,-0.102926 -0.02946,-0.153996 -0.04152,-0.199905 -0.08817,-0.397859 -0.137459,-0.594796 -0.01999,-0.08005 -0.04076,-0.159716 -0.06201,-0.23926 -0.03208,-0.119806 -0.06585,-0.238985 -0.100769,-0.357603 a 7.7120762,7.7120762 0 0 0 1.02526,0.0801 7.7120762,7.7120762 0 0 0 0.01137,0.0016 7.7120762,7.7120762 0 0 0 1.187525,-0.09353 7.7120762,7.7120762 0 0 0 0.02894,-0.0041 7.7120762,7.7120762 0 0 0 1.138946,-0.27337 7.7120762,7.7120762 0 0 0 0.04496,-0.01395 7.7120762,7.7120762 0 0 0 0.09974,-0.03307 l 1.847432,1.936316 v 8.003129 h 1.643311 1.720307 v -5.975347 c 1.806577,0.528574 3.795759,0.489225 5.370739,-0.02222 1.17325,-0.380994 1.88124,-1.006927 2.61689,-1.618506 0.546,-0.74825 0.0369,-0.880989 -0.31161,-0.888833 l -0.0264,0.0031 -3.02876,0.366903 c -1.52893,0.185213 -3.250162,-0.01759 -4.620909,-0.750859 v -7.599018 c 0,-0.11898 -0.0038,-0.237051 -0.01033,-0.354499 a 7.7120762,7.7120762 0 0 0 0.01085,-0.394293 7.7120762,7.7120762 0 0 0 -0.08423,-1.073319 7.7120762,7.7120762 0 0 0 -0.107487,-0.53847 7.7120762,7.7120762 0 0 0 -0.11989,-0.497644 7.7120762,7.7120762 0 0 0 -0.212389,-0.628385 7.7120762,7.7120762 0 0 0 -0.13901,-0.336413 7.7120762,7.7120762 0 0 0 -0.336931,-0.687813 7.7120762,7.7120762 0 0 0 -0.01757,-0.03566 7.7120762,7.7120762 0 0 0 -0.05116,-0.07648 7.7120762,7.7120762 0 0 0 -0.576707,-0.860927 7.7120762,7.7120762 0 0 0 -0.09199,-0.107487 7.7120762,7.7120762 0 0 0 -0.689364,-0.754478 7.7120762,7.7120762 0 0 0 -0.113688,-0.09663 7.7120762,7.7120762 0 0 0 -0.790131,-0.63872 7.7120762,7.7120762 0 0 0 -0.130744,-0.0801 7.7120762,7.7120762 0 0 0 -0.872297,-0.510045 7.7120762,7.7120762 0 0 0 -0.170016,-0.0708 7.7120762,7.7120762 0 0 0 -0.909505,-0.361736 7.7120762,7.7120762 0 0 0 -0.270785,-0.06511 7.7120762,7.7120762 0 0 0 -0.864029,-0.199988 7.7120762,7.7120762 0 0 0 -1.163754,-0.09198 7.7120762,7.7120762 0 0 0 -2.011761,0.288356 5.0536324,5.2197986 0 0 0 -3.810622,-1.792655 5.0536324,5.2197986 0 0 0 -5.16e-4,0 z" />
      <path
         id="path45633"
         d="m 83.720987,56.34333 v -3.791501 c 0,-0.328639 -0.03312,-0.649112 -0.09612,-0.958596 -0.063,-0.309485 -0.15621,-0.607872 -0.275953,-0.891936 -0.119742,-0.284062 -0.26593,-0.553773 -0.436149,-0.806151 -0.170218,-0.252379 -0.364345,-0.487336 -0.578777,-0.701768 -0.214428,-0.214429 -0.449386,-0.408556 -0.701764,-0.578776 -0.252379,-0.170217 -0.52209,-0.316923 -0.806151,-0.436666 -0.284065,-0.119742 -0.582454,-0.212431 -0.891937,-0.275434 -0.17534,-0.03569 -0.361194,-0.03835 -0.543118,-0.05426 0.921472,0.864557 1.503267,2.085358 1.503267,3.454569 v 5.040519 0.01654 c 0.0091,-0.0054 0.01782,-0.01115 0.02687,-0.01654 z"
         style="color:#000000;font-variation-settings:normal;opacity:1;vector-effect:none;fill:#b39c9c;fill-opacity:1;stroke-width:0.264583;stroke-linecap:butt;stroke-linejoin:miter;stroke-miterlimit:4;stroke-dasharray:none;stroke-dashoffset:0;stroke-opacity:1;stop-color:#000000;stop-opacity:1" />
      <path
         id="path45635"
         d="m 53.650988,48.958251 a 1.4458926,1.4458926 0 0 0 -1.445906,1.445908 1.4458926,1.4458926 0 0 0 0.248047,0.599445 1.4458926,1.4458926 0 0 0 1.197859,0.84646 1.4458926,1.4458926 0 0 0 1.445905,-1.445905 1.4458926,1.4458926 0 0 0 -0.796332,-1.176674 1.4458926,1.4458926 0 0 0 -0.649573,-0.269234 z"
         style="color:#000000;fill:#666666;stroke-width:0.964999" />
      <path
         style="color:#000000;fill:none;stroke-width:0.965"
         d="m 59.617859,38.50744 c -3.295512,-2.7e-5 -5.967057,2.671519 -5.967032,5.967031 v 5.128452"
         id="path45637" />
      <path
         style="color:#000000;font-variation-settings:normal;opacity:1;vector-effect:none;fill:#906f6f;fill-opacity:1;stroke-width:0.264583;stroke-linecap:butt;stroke-linejoin:miter;stroke-miterlimit:4;stroke-dasharray:none;stroke-dashoffset:0;stroke-opacity:1;stop-color:#000000;stop-opacity:1"
         d="m 59.617187,38.025391 c -3.556273,-3e-5 -6.449245,2.892945 -6.449218,6.449218 v 5.128907 h 0.964843 v -5.128907 c -2.3e-5,-3.034744 2.449632,-5.484399 5.484375,-5.484375 z"
         id="path45639" />
      <path
         id="path45641"
         d="m 95.200022,31.325113 a 7.7120762,7.7120762 0 0 1 -7.712076,7.712076 7.7120762,7.7120762 0 0 1 -7.712077,-7.712076 7.7120762,7.7120762 0 0 1 7.712077,-7.712076 7.7120762,7.7120762 0 0 1 7.712076,7.712076"
         style="color:#000000;fill:#666666;stroke-width:0.264583" />
      <path
         id="path45643"
         d="m 87.488198,23.613029 a 7.7120762,7.7120762 0 0 0 -7.712191,7.71219 7.7120762,7.7120762 0 0 0 2.674257,5.49734 7.7120762,7.7120762 0 0 1 -1.016992,-3.797186 7.7120762,7.7120762 0 0 1 1.03301,-3.856095 7.7120762,7.7120762 0 0 1 2.823086,-2.823083 7.7120762,7.7120762 0 0 1 3.856093,-1.033012 7.7120762,7.7120762 0 0 1 3.856095,1.033012 7.7120762,7.7120762 0 0 1 1.180807,1.181325 7.7120762,7.7120762 0 0 0 -6.694165,-3.914491 z"
         style="color:#000000;font-variation-settings:normal;opacity:1;vector-effect:none;fill:#916f6f;fill-opacity:1;stroke-width:0.264583;stroke-linecap:butt;stroke-linejoin:miter;stroke-miterlimit:4;stroke-dasharray:none;stroke-dashoffset:0;stroke-opacity:1;stop-color:#000000;stop-opacity:1" />
      <path
         id="path45645"
         d="m 86.719175,27.328585 a 5.0536323,5.2197986 0 0 1 -5.053632,5.219798 5.0536323,5.2197986 0 0 1 -5.053633,-5.219798 5.0536323,5.2197986 0 0 1 5.053633,-5.219799 5.0536323,5.2197986 0 0 1 5.053632,5.219799"
         style="color:#000000;fill:#666666;stroke-width:6.74174" />
      <path
         id="path45647"
         d="m 85.766554,27.328585 h 3.005243 c 2.629132,0 4.745725,2.116593 4.745725,4.745725 v 16.483597"
         style="color:#000000;fill:none;stroke-width:3.365" />
      <path
         id="path45649"
         d="M 93.479047,48.558793 V 38.93491 l -1.643311,-0.310641 v 9.934524 z"
         style="color:#000000;font-variation-settings:normal;opacity:1;vector-effect:none;fill:#b39c9c;fill-opacity:1;stroke-width:0.264583;stroke-linecap:butt;stroke-linejoin:miter;stroke-miterlimit:4;stroke-dasharray:none;stroke-dashoffset:0;stroke-opacity:1;stop-color:#000000;stop-opacity:1"
         sodipodi:nodetypes="ccccc" />
      <path
         id="path45651"
         style="color:#000000;font-variation-settings:normal;opacity:1;vector-effect:none;fill:#906f6f;fill-opacity:1;stroke-width:0.999999;stroke-linecap:butt;stroke-linejoin:miter;stroke-miterlimit:4;stroke-dasharray:none;stroke-dashoffset:0;stroke-opacity:1;stop-color:#000000;stop-opacity:1"
         d="m 336.92773,95.671875 c -2.86777,-1.57e-4 -5.70355,0.437544 -8.42578,1.259766 h -4.34765 v 1.691406 c -0.6093,0.297069 -1.21137,0.612867 -1.80078,0.953125 -4.43156,2.558408 -8.11151,6.238368 -10.66993,10.669918 -2.55803,4.4312 -3.90458,9.45768 -3.90429,14.57422 0.02,5.03557 1.34432,9.98005 3.84375,14.35157 5.10154,5.03706 11.88052,8.01734 19.04101,8.37109 5.70928,-3e-4 11.03506,-1.64154 15.53125,-4.47852 2.66029,-1.67856 5.1014,4.01883 7.11133,4.03711 v 36.42774 h 6.50195 v -62.30469 c 0,-0.46957 -0.0162,-0.9352 -0.043,-1.39844 0.0154,-0.47973 0.0449,-1.02954 0.0449,-1.43164 -0.0204,-5.0364 -1.34527,-9.98161 -3.84571,-14.35351 -1.3216,-1.64547 -2.818,-3.14252 -4.46289,-4.464848 -4.43119,-2.55803 -9.45767,-3.904577 -14.57422,-3.904297 z"
         transform="scale(0.26458333)" />
      <path
         id="path45653"
         d="m 84.046467,28.727615 h 3.005243 c 2.629132,0 4.745725,2.116593 4.745725,4.745725 v 16.483597"
         style="color:#000000;fill:none;stroke-width:3.365" />
      <path
         id="path45655"
         d="m 79.350194,30.013156 c -0.05277,-0.01705 -0.102526,-0.04035 -0.155546,-0.05685 -0.476916,-0.148334 -0.96412,-0.27373 -1.459859,-0.375171 -0.495739,-0.101439 -1.000043,-0.178999 -1.512052,-0.230992 -0.512011,-0.05199 -1.031801,-0.07855 -1.557528,-0.07855 -0.525729,-2e-6 -1.045001,0.02656 -1.557012,0.07855 -0.512008,0.05199 -1.016828,0.129553 -1.512567,0.230992 -0.495739,0.101441 -0.982427,0.226837 -1.459344,0.375171 -0.476917,0.148336 -0.943856,0.319439 -1.399397,0.512114 -0.455544,0.192675 -0.89957,0.406839 -1.331185,0.641305 -0.431617,0.234466 -0.850601,0.48904 -1.255739,0.762744 -0.405135,0.273703 -0.79643,0.566557 -1.172538,0.876948 -0.376105,0.31039 -0.73706,0.638363 -1.081587,0.982887 -0.344525,0.344525 -0.67301,0.70548 -0.983401,1.081588 -0.310391,0.376108 -0.602729,0.7674 -0.876432,1.172538 -0.273706,0.405138 -0.528797,0.824121 -0.763262,1.255736 -0.234466,0.431618 -0.448628,0.87616 -0.641305,1.331704 -0.192675,0.455541 -0.363779,0.921961 -0.512112,1.398878 -0.148336,0.476919 -0.273733,0.964121 -0.375171,1.45986 -0.101441,0.495739 -0.179001,1.000043 -0.230995,1.512054 -0.05199,0.512008 -0.07855,1.031798 -0.07855,1.557528 v 11.84114 h 3.594611 v -5.040519 c 0,-2.629128 2.11632,-4.745448 4.745448,-4.745448 h 8.374165 c 1.259917,0 2.39426,0.495332 3.242181,1.290879 0.181924,0.01591 0.367778,0.01857 0.543118,0.05426 0.309483,0.063 0.607872,0.155692 0.891937,0.275434 0.284061,0.119743 0.553772,0.266449 0.806151,0.436666 0.252378,0.17022 0.487336,0.364347 0.701764,0.578776 0.214432,0.214432 0.408559,0.449389 0.578777,0.701768 0.170219,0.252378 0.316407,0.522089 0.436149,0.806151 0.119743,0.284064 0.21295,0.582451 0.275953,0.891936 0.063,0.309484 0.09612,0.629957 0.09612,0.958596 v 3.791501 h 3.348632 V 43.253173 c 4.5e-5,-5.677885 -3.112934,-10.62083 -7.719425,-13.240017 z"
         style="color:#000000;fill:#906f6f;fill-opacity:1;stroke-width:0.264583" />
      <path
         id="path45657"
         d="m 71.839025,28.022579 c -8.411654,-6.9e-5 -15.23066,6.818939 -15.230596,15.230594 V 56.34333 h 2.826186 V 44.502194 c -5e-6,-0.52573 0.02655,-1.04552 0.07855,-1.557528 0.05199,-0.512011 0.129554,-1.016315 0.230995,-1.512054 0.101438,-0.495739 0.226835,-0.982941 0.375171,-1.45986 0.148333,-0.476917 0.319437,-0.943337 0.512112,-1.398878 0.192677,-0.455544 0.406839,-0.900086 0.641305,-1.331704 0.234465,-0.431615 0.489556,-0.850598 0.763262,-1.255736 0.273703,-0.405138 0.566041,-0.79643 0.876432,-1.172538 0.310391,-0.376108 0.638876,-0.737063 0.983401,-1.081588 0.344527,-0.344524 0.705482,-0.672497 1.081587,-0.982887 0.376108,-0.310391 0.767403,-0.603245 1.172538,-0.876948 0.405138,-0.273704 0.824122,-0.528278 1.255739,-0.762744 0.431615,-0.234466 0.875641,-0.44863 1.331185,-0.641305 0.455541,-0.192675 0.92248,-0.363778 1.399397,-0.512114 0.476917,-0.148334 0.963605,-0.27373 1.459344,-0.375171 0.495739,-0.101439 1.000559,-0.178999 1.512567,-0.230992 0.512011,-0.05199 1.031283,-0.07855 1.557012,-0.07855 0.525727,-2e-6 1.045517,0.02656 1.557528,0.07855 0.512009,0.05199 1.016313,0.129553 1.512052,0.230992 0.495739,0.101441 0.982943,0.226837 1.459859,0.375171 0.05302,0.01649 0.102778,0.03979 0.155546,0.05685 -2.217917,-1.261079 -4.777401,-1.990598 -7.511169,-1.990577 z"
         style="color:#000000;fill:#b39c9c;fill-opacity:1;stroke-width:0.264583" />
      <path
         id="path45659"
         d="m 85.766554,37.337272 h 3.005243 c 2.629132,0 4.745725,2.116593 4.745725,4.745725 v 5.900264"
         style="color:#000000;fill:none;stroke-width:3.365" />
      <path
         id="path45661"
         d="m 102.35403,38.191085 -2.12502,2.125026 c -1.859078,1.859077 -4.852408,1.859075 -6.711488,-2e-6 L 81.861866,28.660449"
         style="color:#000000;fill:none;stroke-width:2.265" />
      <path
         id="path45663"
         d="m 81.244653,28.492317 -0.469222,0.469223 11.205,11.746053 c 2.152412,2.256348 5.953475,2.709685 8.589659,1.853633 1.17325,-0.380994 1.88124,-1.006927 2.61689,-1.618506 0.546,-0.74825 0.0369,-0.880986 -0.31161,-0.888833 l -0.0264,0.0031 c -0.29225,0.243207 -0.57906,0.489027 -0.90951,0.712102 -0.41565,0.280591 -0.88615,0.532455 -1.47277,0.722953 -0.32953,0.107008 -0.67724,0.193781 -1.037669,0.2589 -0.360428,0.06512 -0.733282,0.108402 -1.113626,0.129707 -0.380346,0.0213 -0.768281,0.0203 -1.157552,-0.0041 -0.389271,-0.02444 -0.780163,-0.07207 -1.16737,-0.144177 C 95.603265,41.660262 95.219993,41.56365 94.84584,41.44195 94.471685,41.320249 94.10661,41.173337 93.7565,41.000117 93.40639,40.826894 93.071118,40.62734 92.756045,40.400669 92.440968,40.174 92.146079,39.920484 91.877027,39.638441 Z"
         style="color:#000000;font-variation-settings:normal;opacity:1;vector-effect:none;fill:#906f6f;fill-opacity:1;stroke-width:0.264583;stroke-linecap:butt;stroke-linejoin:miter;stroke-miterlimit:4;stroke-dasharray:none;stroke-dashoffset:0;stroke-opacity:1;stop-color:#000000;stop-opacity:1" />
      <path
         id="path45665"
         d="m 89.71132,37.488151 2.165757,2.150255 c 0.269052,0.282043 0.563941,0.535559 0.879018,0.762228 0.315073,0.226671 0.650345,0.426225 1.000455,0.599448 0.35011,0.17322 0.715185,0.320132 1.08934,0.441833 0.374153,0.1217 0.757425,0.218315 1.144633,0.290422 0.387207,0.0721 0.778099,0.119737 1.16737,0.144177 0.389271,0.02445 0.777206,0.02543 1.157552,0.0041 0.380344,-0.0213 0.753198,-0.06459 1.113626,-0.129706 0.360429,-0.06512 0.708139,-0.151892 1.037669,-0.2589 0.58662,-0.190498 1.05712,-0.442363 1.47277,-0.722953 0.33045,-0.223076 0.61726,-0.468895 0.90951,-0.712102 l -3.028757,0.366903 c -2.006642,0.243085 -4.346326,-0.179245 -5.787244,-1.596801 L 91.436866,36.28817 c -1.032534,-0.253923 -1.612979,0.138546 -1.725546,1.199981 z"
         style="color:#000000;font-variation-settings:normal;opacity:1;vector-effect:none;fill:#b39c9c;fill-opacity:1;stroke-width:0.264583;stroke-linecap:butt;stroke-linejoin:miter;stroke-miterlimit:4;stroke-dasharray:none;stroke-dashoffset:0;stroke-opacity:1;stop-color:#000000;stop-opacity:1" />
      <path
         id="path45667"
         d="m 102.25091,37.121671 -2.12502,2.125026 c -1.85908,1.859077 -4.85241,1.859075 -6.71149,-2e-6 L 81.758744,27.591035"
         style="color:#000000;fill:none;stroke-width:2.265" />
      <path
         id="path45669"
         d="m 84.923497,23.369633 a 5.0536324,5.2197986 0 0 0 -0.289388,-0.09043 5.0536324,5.2197986 0 0 0 -0.985986,-0.100252 5.0536324,5.2197986 0 0 0 -2.526977,0.699699 5.0536324,5.2197986 0 0 0 -1.849499,1.910477 5.0536324,5.2197986 0 0 0 -0.676962,2.609659 5.0536324,5.2197986 0 0 0 0.676962,2.610178 5.0536324,5.2197986 0 0 0 1.159619,1.197859 5.0536324,5.2197986 0 0 0 1.234032,0.341582 5.0536324,5.2197986 0 0 0 5.053955,-5.219838 5.0536324,5.2197986 0 0 0 -1.795756,-3.95893 z"
         style="color:#000000;font-variation-settings:normal;opacity:1;vector-effect:none;fill:#906f6f;fill-opacity:1;stroke-width:0.264583;stroke-linecap:butt;stroke-linejoin:miter;stroke-miterlimit:4;stroke-dasharray:none;stroke-dashoffset:0;stroke-opacity:1;stop-color:#000000;stop-opacity:1" />
      <path
         id="path45671"
         d="m 81.665298,22.108728 a 5.0536324,5.2197986 0 0 0 -5.053438,5.219835 5.0536324,5.2197986 0 0 0 3.819406,4.878256 5.0536324,5.2197986 0 0 1 -1.159619,-1.197859 5.0536324,5.2197986 0 0 1 -0.676962,-2.610178 5.0536324,5.2197986 0 0 1 0.676962,-2.609659 5.0536324,5.2197986 0 0 1 1.849499,-1.910477 5.0536324,5.2197986 0 0 1 2.526977,-0.699699 5.0536324,5.2197986 0 0 1 0.985986,0.100252 5.0536324,5.2197986 0 0 1 0.289388,0.09043 5.0536324,5.2197986 0 0 0 -3.258199,-1.260905 z"
         style="color:#000000;font-variation-settings:normal;opacity:1;vector-effect:none;fill:#b39c9c;fill-opacity:1;stroke-width:0.264583;stroke-linecap:butt;stroke-linejoin:miter;stroke-miterlimit:4;stroke-dasharray:none;stroke-dashoffset:0;stroke-opacity:1;stop-color:#000000;stop-opacity:1" />
      <path
         id="path45673"
         d="m 52.453129,51.003604 a 1.4458926,1.4458926 0 0 0 1.197859,0.84646 1.4458926,1.4458926 0 0 0 1.445905,-1.445905 1.4458926,1.4458926 0 0 0 -0.796332,-1.176674 1.4458926,1.4458926 0 0 1 0.107487,0.541052 1.4458926,1.4458926 0 0 1 -0.110072,0.55294 1.4458926,1.4458926 0 0 1 -0.313674,0.46922 1.4458926,1.4458926 0 0 1 -0.469223,0.313676 1.4458926,1.4458926 0 0 1 -0.552936,0.110072 1.4458926,1.4458926 0 0 1 -0.509014,-0.210841 z"
         style="color:#000000;font-variation-settings:normal;opacity:1;vector-effect:none;fill:#906f6f;fill-opacity:1;stroke-width:0.264583;stroke-linecap:butt;stroke-linejoin:miter;stroke-miterlimit:4;stroke-dasharray:none;stroke-dashoffset:0;stroke-opacity:1;stop-color:#000000;stop-opacity:1" />
      <path
         id="path45675"
         d="m 52.453129,51.003604 a 1.4458926,1.4458926 0 0 0 0.509014,0.210841 1.4458926,1.4458926 0 0 0 0.552936,-0.110072 1.4458926,1.4458926 0 0 0 0.469223,-0.313676 1.4458926,1.4458926 0 0 0 0.313674,-0.46922 1.4458926,1.4458926 0 0 0 0.110072,-0.55294 1.4458926,1.4458926 0 0 0 -0.107487,-0.541052 1.4458926,1.4458926 0 0 0 -0.649573,-0.269234 1.4458926,1.4458926 0 0 0 -1.445906,1.445908 1.4458926,1.4458926 0 0 0 0.248047,0.599445 z"
         style="color:#000000;font-variation-settings:normal;opacity:1;vector-effect:none;fill:#b39c9c;fill-opacity:1;stroke-width:0.264583;stroke-linecap:butt;stroke-linejoin:miter;stroke-miterlimit:4;stroke-dasharray:none;stroke-dashoffset:0;stroke-opacity:1;stop-color:#000000;stop-opacity:1" />
    </g>
  </g>
</svg>
