<?xml version="1.0" encoding="UTF-8" standalone="no"?>
<!-- Created with Inkscape (http://www.inkscape.org/) -->

<svg
   width="210mm"
   height="128.52603mm"
   viewBox="0 0 210 128.52603"
   version="1.1"
   id="svg1"
   inkscape:version="1.3-dev (1:1.2.0-alpha1+devel+202212031705+4648735e44)"
   sodipodi:docname="ch02-Jack-o’-Lantern_illustrations_Fig 2.22.svg"
   xmlns:inkscape="http://www.inkscape.org/namespaces/inkscape"
   xmlns:sodipodi="http://sodipodi.sourceforge.net/DTD/sodipodi-0.dtd"
   xmlns="http://www.w3.org/2000/svg"
   xmlns:svg="http://www.w3.org/2000/svg">
  <sodipodi:namedview
     id="namedview1"
     pagecolor="#ffffff"
     bordercolor="#666666"
     borderopacity="1.0"
     inkscape:showpageshadow="2"
     inkscape:pageopacity="0.0"
     inkscape:pagecheckerboard="0"
     inkscape:deskcolor="#d1d1d1"
     inkscape:document-units="mm"
     inkscape:zoom="0.70733726"
     inkscape:cx="788.16716"
     inkscape:cy="405.04016"
     inkscape:window-width="1920"
     inkscape:window-height="1018"
     inkscape:window-x="0"
     inkscape:window-y="0"
     inkscape:window-maximized="1"
     inkscape:current-layer="layer1" />
  <defs
     id="defs1" />
  <g
     inkscape:label="Layer 1"
     inkscape:groupmode="layer"
     id="layer1">
    <path
       style="fill:none;stroke:#b3b3b3;stroke-width:0.685914;stroke-linecap:butt;stroke-linejoin:miter;stroke-miterlimit:4;stroke-dasharray:4.11548, 1.37182;stroke-dashoffset:0;stroke-opacity:1"
       d="M 18.438142,112.74632 H 193.5753"
       id="path102912" />
    <path
       style="fill:none;stroke:#b3b3b3;stroke-width:0.685914;stroke-linecap:butt;stroke-linejoin:miter;stroke-miterlimit:4;stroke-dasharray:4.11548, 1.37182;stroke-dashoffset:0;stroke-opacity:1"
       d="M 18.438142,15.799171 H 193.5753"
       id="path102910" />
    <g
       id="g102586"
       transform="matrix(1.4750834,0,0,1.4750834,40.710172,-329.15917)">
      <path
         style="fill:#803300;stroke:none;stroke-width:0.264583px;stroke-linecap:butt;stroke-linejoin:miter;stroke-opacity:1"
         d="m -2.3068782,270.02743 3.737639,7.02652 2.593107,-1.60038 -0.726466,-6.74538 z"
         id="path102558" />
      <path
         id="path102560"
         style="fill:#803300;stroke:none;stroke-width:0.264583px;stroke-linecap:butt;stroke-linejoin:miter;stroke-opacity:1"
         d="m 1.4162907,269.15093 -3.7232854,0.87643 3.7377554,7.02644 1.1368802,-0.70177 z" />
      <path
         id="path102562"
         style="fill:#5b2400;fill-opacity:1;stroke:none;stroke-width:0.264583px;stroke-linecap:butt;stroke-linejoin:miter;stroke-opacity:1"
         d="m 1.4162907,269.15093 1.1513502,7.2011 1.4562429,-0.89865 -0.7265697,-6.74532 z" />
      <rect
         style="font-variation-settings:normal;fill:#ff6600;fill-opacity:1;stroke:none;stroke-width:0.765;stroke-linecap:butt;stroke-linejoin:miter;stroke-miterlimit:4;stroke-dasharray:none;stroke-dashoffset:0;stroke-opacity:1;stop-color:#000000"
         id="rect102564"
         width="24.184423"
         height="24.184423"
         x="-8.7509298"
         y="275.11761"
         rx="4.3568144"
         ry="4.3568144" />
      <path
         id="path102566"
         style="fill:#008000;stroke:none;stroke-width:0.765002;stop-color:#000000"
         d="m 13.164309,265.87123 v 3.05446 a 6.2928339,6.2928341 0 0 1 -6.2928338,6.29284 H 3.8170198 v 0 a 9.3472901,9.3472903 0 0 1 9.3472892,-9.3473 z" />
      <path
         id="path102568"
         style="font-variation-settings:normal;opacity:1;fill:#a74300;fill-opacity:1;stroke:none;stroke-width:0.765;stroke-linecap:butt;stroke-linejoin:miter;stroke-miterlimit:4;stroke-dasharray:none;stroke-dashoffset:0;stroke-opacity:1;stop-color:#000000;stop-opacity:1"
         d="m 8.0396607,275.11748 c 0.075427,0 0.1503283,0.002 0.2247927,0.006 0.074462,0.004 0.148799,0.01 0.2222076,0.017 0.073409,0.007 0.1458093,0.0164 0.2180749,0.0274 0.072266,0.011 0.1439413,0.0238 0.214974,0.0382 0.071033,0.0145 0.1416473,0.0307 0.2113571,0.0486 0.069707,0.0179 0.1389247,0.0372 0.2072216,0.0584 0.068294,0.0212 0.1357789,0.0439 0.2025703,0.0682 0.066794,0.0244 0.132723,0.0505 0.1979216,0.078 0.065199,0.0275 0.1297543,0.0563 0.1932702,0.0868 0.063516,0.0305 0.1258413,0.0627 0.1875843,0.0961 0.06174,0.0335 0.122539,0.0681 0.18242,0.10439 0.05988,0.0363 0.118805,0.0741 0.176733,0.11317 0.05793,0.0391 0.115163,0.0797 0.171048,0.12144 0.05588,0.0417 0.110577,0.0849 0.16433,0.12919 0.05375,0.0443 0.106601,0.0896 0.158131,0.13643 0.05153,0.0468 0.101677,0.0949 0.150895,0.14417 0.04922,0.0492 0.09736,0.0999 0.144176,0.15141 0.04682,0.0515 0.09262,0.10386 0.136943,0.15762 0.04433,0.0538 0.08693,0.10896 0.128675,0.16484 0.04174,0.0559 0.08237,0.11261 0.121441,0.17054 0.03907,0.0579 0.07686,0.11685 0.113171,0.17673 0.03631,0.0599 0.07093,0.12068 0.104386,0.18242 0.03346,0.0617 0.0656,0.12458 0.09612,0.1881 0.03052,0.0635 0.05985,0.12755 0.08733,0.19275 0.02749,0.0652 0.05315,0.13165 0.07752,0.19844 0.02436,0.0668 0.04706,0.13428 0.06821,0.20257 0.02115,0.0683 0.04106,0.137 0.05891,0.20671 0.01785,0.0697 0.0336,0.14032 0.04806,0.21135 0.01446,0.071 0.02726,0.14271 0.03824,0.21498 0.01098,0.0723 0.02049,0.14518 0.02791,0.21859 0.0074,0.0734 0.01278,0.14723 0.01654,0.22169 0.0038,0.0745 0.0057,0.14937 0.0057,0.22479 v 15.47089 c 0,0.0754 -0.0019,0.15033 -0.0057,0.2248 -0.0037,0.0745 -0.0091,0.14828 -0.01654,0.22169 -0.0074,0.0734 -0.01693,0.14632 -0.02791,0.21859 -0.01098,0.0723 -0.02378,0.14394 -0.03824,0.21497 -0.01446,0.071 -0.03021,0.14165 -0.04806,0.21136 -0.01785,0.0697 -0.03776,0.13841 -0.05891,0.20671 -0.02115,0.0683 -0.04385,0.13629 -0.06821,0.20308 -0.02437,0.0668 -0.05003,0.13272 -0.07752,0.19793 -0.02749,0.0652 -0.05682,0.12923 -0.08733,0.19275 -0.03052,0.0635 -0.06266,0.12636 -0.09612,0.1881 -0.03346,0.0617 -0.06808,0.12254 -0.104386,0.18242 -0.03631,0.0599 -0.0741,0.1188 -0.113171,0.17673 -0.03907,0.0579 -0.0797,0.11517 -0.121441,0.17105 -0.04174,0.0559 -0.08435,0.11058 -0.128675,0.16433 -0.04432,0.0538 -0.09013,0.1066 -0.136943,0.15813 -0.04681,0.0515 -0.09496,0.10168 -0.144176,0.1509 -0.04922,0.0492 -0.09936,0.0974 -0.150895,0.14417 -0.05153,0.0468 -0.104378,0.0921 -0.158131,0.13643 -0.05375,0.0443 -0.108445,0.0874 -0.16433,0.12919 -0.05588,0.0417 -0.11312,0.0824 -0.171048,0.12144 -0.05793,0.0391 -0.116853,0.0769 -0.176733,0.11317 -0.05988,0.0363 -0.120677,0.0709 -0.18242,0.10439 -0.06174,0.0335 -0.1240685,0.0656 -0.1875843,0.0961 -0.063516,0.0305 -0.1280716,0.0593 -0.1932702,0.0868 -0.065199,0.0275 -0.1311275,0.0537 -0.1979216,0.078 -0.066791,0.0244 -0.134276,0.0471 -0.2025703,0.0682 -0.068297,0.0212 -0.1375145,0.0405 -0.2072216,0.0584 -0.06971,0.0179 -0.1403244,0.0341 -0.2113571,0.0486 -0.071033,0.0145 -0.1427083,0.0273 -0.214974,0.0382 -0.072266,0.011 -0.1446662,0.0205 -0.2180749,0.0279 -0.073409,0.007 -0.1477459,0.0128 -0.2222076,0.0165 -0.074464,0.004 -0.1493653,0.006 -0.2247927,0.006 h 3.0370223 c 2.413675,0 4.356841,-1.94316 4.356841,-4.35684 v -15.47126 c 0,-2.41367 -1.943166,-4.35684 -4.356841,-4.35684 z"
         sodipodi:nodetypes="cssscsscsscssssscsssssssssssssssssssssssssssssssssssccssssccssccccssssc" />
      <path
         id="path102570"
         style="font-variation-settings:normal;opacity:1;fill:#ff6600;fill-opacity:1;stroke:none;stroke-width:0.765;stroke-linecap:butt;stroke-linejoin:miter;stroke-miterlimit:4;stroke-dasharray:none;stroke-dashoffset:0;stroke-opacity:1;stop-color:#000000;stop-opacity:1"
         d="M -4.394208,299.30206 H 6.4521608 c 0.075427,0 0.1503283,-0.002 0.2247926,-0.006 0.074462,-0.004 0.148799,-0.009 0.2222077,-0.0165 0.073409,-0.007 0.1458092,-0.0169 0.2180748,-0.0279 0.072266,-0.011 0.1439413,-0.0238 0.214974,-0.0382 0.071033,-0.0145 0.1416473,-0.0307 0.2113571,-0.0486 0.069707,-0.0179 0.1389248,-0.0372 0.2072217,-0.0584 0.068294,-0.0211 0.1357788,-0.0439 0.2025703,-0.0682 0.066794,-0.0244 0.1327229,-0.0505 0.1979215,-0.078 0.065199,-0.0275 0.1297543,-0.0563 0.1932702,-0.0868 0.063516,-0.0305 0.1258411,-0.0627 0.1875843,-0.0961 0.061743,-0.0335 0.1225391,-0.0681 0.1824196,-0.10439 0.059881,-0.0363 0.1188059,-0.0741 0.1767337,-0.11317 0.057928,-0.0391 0.1151626,-0.0797 0.1710479,-0.12144 0.055885,-0.0417 0.1105773,-0.0849 0.16433,-0.12919 0.053753,-0.0443 0.1066007,-0.0896 0.1581309,-0.13642 0.05153,-0.0468 0.1016767,-0.095 0.1508945,-0.14418 0.049218,-0.0492 0.097361,-0.0994 0.1441768,-0.1509 0.046818,-0.0515 0.09262,-0.10437 0.136943,-0.15813 0.044326,-0.0537 0.086931,-0.10844 0.1286748,-0.16433 0.041743,-0.0559 0.08237,-0.11312 0.1214408,-0.17105 0.03907,-0.0579 0.07686,-0.11685 0.113171,-0.17673 0.03631,-0.0599 0.07093,-0.12067 0.104386,-0.18242 0.03346,-0.0617 0.0656,-0.12458 0.09612,-0.1881 0.03052,-0.0635 0.05985,-0.12755 0.08733,-0.19275 0.02748,-0.0652 0.05315,-0.13113 0.07752,-0.19792 0.02436,-0.0668 0.04706,-0.1348 0.06821,-0.20309 0.02115,-0.0683 0.04106,-0.137 0.05891,-0.20671 0.01785,-0.0697 0.0336,-0.14032 0.04806,-0.21136 0.01446,-0.071 0.02726,-0.1427 0.03824,-0.21497 0.01098,-0.0723 0.02049,-0.14518 0.0279,-0.21859 0.0074,-0.0734 0.01279,-0.14723 0.01654,-0.22169 0.0037,-0.0745 0.0057,-0.14937 0.0057,-0.22479 v -15.4709 c 0,-0.0754 -0.0019,-0.15032 -0.0057,-0.22479 -0.0038,-0.0745 -0.0091,-0.14828 -0.01654,-0.22169 -0.0074,-0.0734 -0.01692,-0.14633 -0.0279,-0.21859 -0.01098,-0.0723 -0.02378,-0.14394 -0.03824,-0.21497 -0.01446,-0.071 -0.03021,-0.14165 -0.04806,-0.21136 -0.01785,-0.0697 -0.03776,-0.13841 -0.05891,-0.20671 -0.02115,-0.0683 -0.04385,-0.13578 -0.06821,-0.20257 -0.02437,-0.0668 -0.05003,-0.13324 -0.07752,-0.19844 -0.02749,-0.0652 -0.05682,-0.12923 -0.08733,-0.19275 -0.03052,-0.0635 -0.06266,-0.12636 -0.09612,-0.1881 -0.03346,-0.0617 -0.06808,-0.12254 -0.104386,-0.18242 -0.03631,-0.0599 -0.0741,-0.11881 -0.113171,-0.17673 -0.03907,-0.0579 -0.079697,-0.11465 -0.1214408,-0.17054 -0.041743,-0.0559 -0.084349,-0.11109 -0.1286748,-0.16484 -0.044323,-0.0537 -0.090125,-0.10609 -0.136943,-0.15762 -0.046815,-0.0515 -0.094959,-0.10219 -0.1441768,-0.15141 -0.049218,-0.0492 -0.099364,-0.0974 -0.1508945,-0.14417 -0.05153,-0.0468 -0.1043781,-0.0921 -0.1581309,-0.13643 -0.053753,-0.0443 -0.1084447,-0.0874 -0.16433,-0.12919 -0.055885,-0.0417 -0.11312,-0.0824 -0.1710479,-0.12144 -0.057928,-0.0391 -0.1168532,-0.0769 -0.1767337,-0.11317 -0.059881,-0.0363 -0.1206764,-0.0709 -0.1824196,-0.10439 -0.061743,-0.0335 -0.1240684,-0.0656 -0.1875843,-0.0961 -0.063516,-0.0305 -0.1280716,-0.0593 -0.1932702,-0.0868 -0.065199,-0.0275 -0.1311275,-0.0537 -0.1979215,-0.078 -0.066791,-0.0244 -0.1342761,-0.0471 -0.2025703,-0.0682 -0.068297,-0.0211 -0.1375146,-0.0405 -0.2072217,-0.0584 -0.06971,-0.0179 -0.1403244,-0.0341 -0.2113571,-0.0486 -0.071033,-0.0145 -0.1427083,-0.0273 -0.214974,-0.0382 -0.072266,-0.011 -0.1446662,-0.02 -0.2180748,-0.0274 -0.073409,-0.007 -0.147746,-0.0133 -0.2222077,-0.017 -0.074464,-0.004 -0.1493652,-0.006 -0.2247926,-0.006 H -4.394208 c -2.4136746,0 -4.3568381,1.94316 -4.3568381,4.35683 v 15.4709 c 0,2.41367 1.9431635,4.35684 4.3568381,4.35684 z" />
      <circle
         style="font-variation-settings:normal;opacity:1;fill:#000000;fill-opacity:1;stroke:none;stroke-width:0.765;stroke-linecap:butt;stroke-linejoin:miter;stroke-miterlimit:4;stroke-dasharray:none;stroke-dashoffset:0;stroke-opacity:1;stop-color:#000000;stop-opacity:1"
         id="circle102572"
         cx="-2.132621"
         cy="282.80084"
         r="2.389107" />
      <path
         style="font-variation-settings:normal;opacity:1;fill:#000000;fill-opacity:1;stroke:none;stroke-width:0.251932;stroke-linecap:butt;stroke-linejoin:miter;stroke-miterlimit:4;stroke-dasharray:none;stroke-dashoffset:0;stroke-opacity:1;stop-color:#000000;stop-opacity:1"
         id="path102574"
         sodipodi:type="arc"
         sodipodi:cx="2.2396886"
         sodipodi:cy="288.09381"
         sodipodi:rx="7.2546"
         sodipodi:ry="7.2546"
         sodipodi:start="0"
         sodipodi:end="3.1415927"
         sodipodi:arc-type="slice"
         d="m 9.4942887,288.09381 a 7.2546,7.2546 0 0 1 -3.6273001,6.28267 7.2546,7.2546 0 0 1 -7.2546002,0 7.2546,7.2546 0 0 1 -3.6272998,-6.28267 h 7.2546 z" />
      <circle
         style="font-variation-settings:normal;opacity:1;fill:#000000;fill-opacity:1;stroke:none;stroke-width:0.765;stroke-linecap:butt;stroke-linejoin:miter;stroke-miterlimit:4;stroke-dasharray:none;stroke-dashoffset:0;stroke-opacity:1;stop-color:#000000;stop-opacity:1"
         id="circle102576"
         cx="6.5898814"
         cy="282.80084"
         r="2.389107" />
      <path
         id="path102578"
         style="opacity:1;fill:#004800;fill-opacity:1;stroke:none;stroke-width:0.765003;stop-color:#000000;stop-opacity:1"
         d="m 11.241016,266.07308 v 2.85253 a 6.2928338,6.292834 0 0 1 -0.0016,0.13953 6.2928338,6.292834 0 0 1 -0.0047,0.13901 6.2928338,6.292834 0 0 1 -0.0078,0.13901 6.2928338,6.292834 0 0 1 -0.01085,0.13849 6.2928338,6.292834 0 0 1 -0.01395,0.1385 6.2928338,6.292834 0 0 1 -0.01654,0.13849 6.2928338,6.292834 0 0 1 -0.02015,0.13798 6.2928338,6.292834 0 0 1 -0.02274,0.13694 6.2928338,6.292834 0 0 1 -0.02636,0.13694 6.2928338,6.292834 0 0 1 -0.02894,0.13591 6.2928338,6.292834 0 0 1 -0.03204,0.13591 6.2928338,6.292834 0 0 1 -0.03514,0.13436 6.2928338,6.292834 0 0 1 -0.03772,0.13384 6.2928338,6.292834 0 0 1 -0.04134,0.13332 6.2928338,6.292834 0 0 1 -0.04392,0.1323 6.2928338,6.292834 0 0 1 -0.04651,0.13074 6.2928338,6.292834 0 0 1 -0.04961,0.13022 6.2928338,6.292834 0 0 1 -0.05271,0.12868 6.2928338,6.292834 0 0 1 -0.05529,0.12815 6.2928338,6.292834 0 0 1 -0.05839,0.1261 6.2928338,6.292834 0 0 1 -0.06098,0.12505 6.2928338,6.292834 0 0 1 -0.06356,0.12402 6.2928338,6.292834 0 0 1 -0.06667,0.12248 6.2928338,6.292834 0 0 1 -0.06925,0.1204 6.2928338,6.292834 0 0 1 -0.07183,0.11938 6.2928338,6.292834 0 0 1 -0.07442,0.11782 6.2928338,6.292834 0 0 1 -0.077,0.11575 6.2928338,6.292834 0 0 1 -0.07958,0.11421 6.2928338,6.292834 0 0 1 -0.082164,0.11265 6.2928338,6.292834 0 0 1 -0.084233,0.11059 6.2928338,6.292834 0 0 1 -0.087334,0.10852 6.2928338,6.292834 0 0 1 -0.0894,0.10697 6.2928338,6.292834 0 0 1 -0.091467,0.10491 6.2928338,6.292834 0 0 1 -0.094051,0.10231 6.2928338,6.292834 0 0 1 -0.09612,0.10077 6.2928338,6.292834 0 0 1 -0.0987,0.0987 6.2928338,6.292834 0 0 1 -0.1002532,0.0961 6.2928338,6.292834 0 0 1 -0.1028356,0.094 6.2928338,6.292834 0 0 1 -0.104902,0.0915 6.2928338,6.292834 0 0 1 -0.1064551,0.0894 6.2928338,6.292834 0 0 1 -0.1090375,0.0868 6.2928338,6.292834 0 0 1 -0.1105879,0.0847 6.2928338,6.292834 0 0 1 -0.1121357,0.0822 6.2928338,6.292834 0 0 1 -0.1142074,0.0796 6.2928338,6.292834 0 0 1 -0.1162711,0.077 6.2928338,6.292834 0 0 1 -0.1173057,0.0744 6.2928338,6.292834 0 0 1 -0.119372,0.0718 6.2928338,6.292834 0 0 1 -0.1209226,0.0692 6.2928338,6.292834 0 0 1 -0.1224729,0.0661 6.2928338,6.292834 0 0 1 -0.1235075,0.0641 6.2928338,6.292834 0 0 1 -0.1250554,0.061 6.2928338,6.292834 0 0 1 -0.1266084,0.0579 6.2928338,6.292834 0 0 1 -0.1276403,0.0558 6.2928338,6.292834 0 0 1 -0.1291907,0.0522 6.2928338,6.292834 0 0 1 -0.1297093,0.0501 6.2928338,6.292834 0 0 1 -0.1312572,0.0465 6.2928338,6.292834 0 0 1 -0.1322916,0.0439 6.2928338,6.292834 0 0 1 -0.1328076,0.0408 6.2928338,6.292834 0 0 1 -0.1338422,0.0382 6.2928338,6.292834 0 0 1 -0.1348766,0.0351 6.2928338,6.292834 0 0 1 -0.1353926,0.032 6.2928338,6.292834 0 0 1 -0.1364245,0.0289 6.2928338,6.292834 0 0 1 -0.1364271,0.0258 6.2928338,6.292834 0 0 1 -0.1374589,0.0233 6.2928338,6.292834 0 0 1 -0.1379749,0.0196 6.2928338,6.292834 0 0 1 -0.1379776,0.0171 6.2928338,6.292834 0 0 1 -0.1384935,0.0139 6.2928338,6.292834 0 0 1 -0.1390094,0.0109 6.2928338,6.292834 0 0 1 -0.1390095,0.008 6.2928338,6.292834 0 0 1 -0.1390094,0.005 6.2928338,6.292834 0 0 1 -0.1395254,0.002 h 1.9233965 a 6.2928338,6.292834 0 0 0 6.2931568,-6.29316 v -3.05459 a 9.3472901,9.3472901 0 0 0 -1.923396,0.20206 z" />
      <path
         id="path102580"
         style="opacity:1;fill:#008000;stroke:none;stroke-width:0.765003;stop-color:#000000;stop-opacity:1"
         d="m 3.817178,275.21877 h 1.130681 a 6.2928338,6.292834 0 0 0 0.1395254,-0.002 6.2928338,6.292834 0 0 0 0.1390094,-0.005 6.2928338,6.292834 0 0 0 0.1390095,-0.008 6.2928338,6.292834 0 0 0 0.1390094,-0.0109 6.2928338,6.292834 0 0 0 0.1384935,-0.0139 6.2928338,6.292834 0 0 0 0.1379776,-0.0171 6.2928338,6.292834 0 0 0 0.1379749,-0.0196 6.2928338,6.292834 0 0 0 0.1374589,-0.0233 6.2928338,6.292834 0 0 0 0.1364271,-0.0258 6.2928338,6.292834 0 0 0 0.1364245,-0.0289 6.2928338,6.292834 0 0 0 0.1353926,-0.032 6.2928338,6.292834 0 0 0 0.1348766,-0.0351 6.2928338,6.292834 0 0 0 0.1338422,-0.0382 6.2928338,6.292834 0 0 0 0.1328076,-0.0408 6.2928338,6.292834 0 0 0 0.1322916,-0.0439 6.2928338,6.292834 0 0 0 0.1312572,-0.0465 6.2928338,6.292834 0 0 0 0.1297093,-0.0501 6.2928338,6.292834 0 0 0 0.1291907,-0.0522 6.2928338,6.292834 0 0 0 0.1276403,-0.0558 6.2928338,6.292834 0 0 0 0.1266084,-0.0579 6.2928338,6.292834 0 0 0 0.1250554,-0.061 6.2928338,6.292834 0 0 0 0.1235075,-0.0641 6.2928338,6.292834 0 0 0 0.1224729,-0.0661 6.2928338,6.292834 0 0 0 0.1209226,-0.0692 6.2928338,6.292834 0 0 0 0.119372,-0.0718 6.2928338,6.292834 0 0 0 0.1173057,-0.0744 6.2928338,6.292834 0 0 0 0.1162711,-0.077 6.2928338,6.292834 0 0 0 0.1142074,-0.0796 6.2928338,6.292834 0 0 0 0.1121357,-0.0822 6.2928338,6.292834 0 0 0 0.1105879,-0.0847 6.2928338,6.292834 0 0 0 0.1090375,-0.0868 6.2928338,6.292834 0 0 0 0.1064551,-0.0894 6.2928338,6.292834 0 0 0 0.104902,-0.0915 6.2928338,6.292834 0 0 0 0.1028356,-0.094 6.2928338,6.292834 0 0 0 0.1002532,-0.0961 6.2928338,6.292834 0 0 0 0.0987,-0.0987 6.2928338,6.292834 0 0 0 0.09612,-0.10077 6.2928338,6.292834 0 0 0 0.094051,-0.10231 6.2928338,6.292834 0 0 0 0.091467,-0.10491 6.2928338,6.292834 0 0 0 0.0894,-0.10697 6.2928338,6.292834 0 0 0 0.087334,-0.10852 6.2928338,6.292834 0 0 0 0.084233,-0.11059 6.2928338,6.292834 0 0 0 0.082164,-0.11265 6.2928338,6.292834 0 0 0 0.07958,-0.11421 6.2928338,6.292834 0 0 0 0.077,-0.11575 6.2928338,6.292834 0 0 0 0.07442,-0.11782 6.2928338,6.292834 0 0 0 0.07183,-0.11938 6.2928338,6.292834 0 0 0 0.06925,-0.1204 6.2928338,6.292834 0 0 0 0.06667,-0.12248 6.2928338,6.292834 0 0 0 0.06356,-0.12402 6.2928338,6.292834 0 0 0 0.06098,-0.12505 6.2928338,6.292834 0 0 0 0.05839,-0.1261 6.2928338,6.292834 0 0 0 0.05529,-0.12815 6.2928338,6.292834 0 0 0 0.05271,-0.12868 6.2928338,6.292834 0 0 0 0.04961,-0.13022 6.2928338,6.292834 0 0 0 0.04651,-0.13074 6.2928338,6.292834 0 0 0 0.04392,-0.1323 6.2928338,6.292834 0 0 0 0.04134,-0.13332 6.2928338,6.292834 0 0 0 0.03772,-0.13384 6.2928338,6.292834 0 0 0 0.03514,-0.13436 6.2928338,6.292834 0 0 0 0.03204,-0.13591 6.2928338,6.292834 0 0 0 0.02894,-0.13591 6.2928338,6.292834 0 0 0 0.02636,-0.13694 6.2928338,6.292834 0 0 0 0.02274,-0.13694 6.2928338,6.292834 0 0 0 0.02015,-0.13798 6.2928338,6.292834 0 0 0 0.01654,-0.13849 6.2928338,6.292834 0 0 0 0.01395,-0.1385 6.2928338,6.292834 0 0 0 0.01085,-0.13849 6.2928338,6.292834 0 0 0 0.0078,-0.13901 6.2928338,6.292834 0 0 0 0.0047,-0.13901 6.2928338,6.292834 0 0 0 0.0016,-0.13953 v -2.85253 a 9.3472901,9.3472901 0 0 0 -7.4238281,9.14569 z" />
      <rect
         style="font-variation-settings:normal;opacity:1;fill:#ff6600;fill-opacity:1;stroke:none;stroke-width:0.765;stroke-linecap:butt;stroke-linejoin:miter;stroke-miterlimit:4;stroke-dasharray:none;stroke-dashoffset:0;stroke-opacity:1;stop-color:#000000;stop-opacity:1"
         id="rect102582"
         width="4.0540247"
         height="3.9679"
         x="-1.8691877"
         y="286.944" />
      <circle
         style="font-variation-settings:normal;opacity:1;fill:#ffffff;fill-opacity:1;stroke:none;stroke-width:2.89134;stroke-linecap:butt;stroke-linejoin:miter;stroke-miterlimit:4;stroke-dasharray:none;stroke-dashoffset:0;stroke-opacity:1;stop-color:#000000;stop-opacity:1"
         id="circle102584"
         cx="-5.44519"
         cy="278.05267"
         r="1.2551526" />
    </g>
    <g
       id="g102616"
       transform="matrix(1.4750834,0,0,1.4750834,89.154832,-329.15917)">
      <path
         style="fill:#803300;stroke:none;stroke-width:0.264583px;stroke-linecap:butt;stroke-linejoin:miter;stroke-opacity:1"
         d="m -2.3068782,238.27743 3.737639,7.02652 2.593107,-1.60038 -0.726466,-6.74538 z"
         id="path102588"
         sodipodi:nodetypes="ccccc" />
      <path
         id="path102590"
         style="fill:#803300;stroke:none;stroke-width:0.264583px;stroke-linecap:butt;stroke-linejoin:miter;stroke-opacity:1"
         d="m 1.4162907,237.40093 -3.7232854,0.87643 3.7377554,7.02644 1.1368802,-0.70177 z"
         sodipodi:nodetypes="ccccc" />
      <path
         id="path102592"
         style="fill:#5b2400;fill-opacity:1;stroke:none;stroke-width:0.264583px;stroke-linecap:butt;stroke-linejoin:miter;stroke-opacity:1"
         d="m 1.4162907,237.40093 1.1513502,7.2011 1.4562429,-0.89865 -0.7265697,-6.74532 z"
         sodipodi:nodetypes="ccccc" />
      <path
         id="path102594"
         style="fill:#ff6600;stroke-width:0.765;stop-color:#000000"
         d="M -4.3941154,243.37044 H 11.076679 c 2.413675,0 4.356815,2.79325 4.356815,6.26289 v 43.40582 c 0,3.46964 -1.94314,6.26289 -4.356815,6.26289 H -4.3941154 c -2.4136752,0 -4.3568144,-2.79325 -4.3568144,-6.26289 v -43.40582 c 0,-3.46964 1.9431392,-6.26289 4.3568144,-6.26289 z"
         sodipodi:nodetypes="sssssssss" />
      <path
         id="path102596"
         style="fill:#008000;stroke:none;stroke-width:0.765002;stop-color:#000000"
         d="m 13.164309,234.12123 v 3.05446 c 0,3.47544 -2.817402,6.29284 -6.2928338,6.29284 H 3.8170198 v 0 c 0,0 4.18492,-9.3473 9.3472892,-9.3473 z"
         sodipodi:nodetypes="csscsc" />
      <path
         id="path102598"
         style="font-variation-settings:normal;opacity:1;fill:#a74300;fill-opacity:1;stroke:none;stroke-width:0.765;stroke-linecap:butt;stroke-linejoin:miter;stroke-miterlimit:4;stroke-dasharray:none;stroke-dashoffset:0;stroke-opacity:1;stop-color:#000000;stop-opacity:1"
         d="m 8.0396607,243.36748 c 0.075427,0 0.1503283,0.002 0.2247927,0.006 0.074462,0.004 0.148799,0.01 0.2222076,0.017 0.073409,0.007 0.1458093,0.0164 0.2180749,0.0274 0.072266,0.011 0.1439413,0.0238 0.214974,0.0382 0.071033,0.0145 0.1416473,0.0307 0.2113571,0.0486 0.069707,0.0179 0.1389247,0.0372 0.2072216,0.0584 0.068294,0.0212 0.1357789,0.0439 0.2025703,0.0682 0.066794,0.0244 0.132723,0.0505 0.1979216,0.078 0.065199,0.0275 0.1297543,0.0563 0.1932702,0.0868 0.063516,0.0305 0.1258413,0.0627 0.1875843,0.0961 0.06174,0.0335 0.122539,0.0681 0.18242,0.10439 0.05988,0.0363 0.118805,0.0741 0.176733,0.11317 0.05793,0.0391 0.115163,0.0797 0.171048,0.12144 0.05588,0.0417 0.110577,0.0849 0.16433,0.12919 0.05375,0.0443 0.106601,0.0896 0.158131,0.13643 0.05153,0.0468 0.101677,0.0949 0.150895,0.14417 0.04922,0.0492 0.09736,0.0999 0.144176,0.15141 0.04682,0.0515 0.09262,0.10386 0.136943,0.15762 0.04433,0.0538 0.08693,0.10896 0.128675,0.16484 0.04174,0.0559 0.08237,0.11261 0.121441,0.17054 0.03907,0.0579 0.07686,0.11685 0.113171,0.17673 0.03631,0.0599 0.07093,0.12068 0.104386,0.18242 0.03346,0.0617 0.0656,0.12458 0.09612,0.1881 0.03052,0.0635 0.05985,0.12755 0.08733,0.19275 0.02749,0.0652 0.05315,0.13165 0.07752,0.19844 0.02436,0.0668 0.04706,0.13428 0.06821,0.20257 0.02115,0.0683 0.04106,0.137 0.05891,0.20671 0.01785,0.0697 0.0336,0.14032 0.04806,0.21135 0.01446,0.071 0.02726,0.14271 0.03824,0.21498 0.01098,0.0723 0.02049,0.14518 0.02791,0.21859 0.0074,0.0734 0.01278,0.14723 0.01654,0.22169 0.0038,0.0745 0.0057,0.14937 0.0057,0.22479 v 47.22089 c 0,0.0754 -0.0019,0.15033 -0.0057,0.2248 -0.0037,0.0745 -0.0091,0.14828 -0.01654,0.22169 -0.0074,0.0734 -0.01693,0.14632 -0.02791,0.21859 -0.01098,0.0723 -0.02378,0.14394 -0.03824,0.21497 -0.01446,0.071 -0.03021,0.14165 -0.04806,0.21136 -0.01785,0.0697 -0.03776,0.13841 -0.05891,0.20671 -0.02115,0.0683 -0.04385,0.13629 -0.06821,0.20308 -0.02437,0.0668 -0.05003,0.13272 -0.07752,0.19793 -0.02749,0.0652 -0.05682,0.12923 -0.08733,0.19275 -0.03052,0.0635 -0.06266,0.12636 -0.09612,0.1881 -0.03346,0.0617 -0.06808,0.12254 -0.104386,0.18242 -0.03631,0.0599 -0.0741,0.1188 -0.113171,0.17673 -0.03907,0.0579 -0.0797,0.11517 -0.121441,0.17105 -0.04174,0.0559 -0.08435,0.11058 -0.128675,0.16433 -0.04432,0.0538 -0.09013,0.1066 -0.136943,0.15813 -0.04681,0.0515 -0.09496,0.10168 -0.144176,0.1509 -0.04922,0.0492 -0.09936,0.0974 -0.150895,0.14417 -0.05153,0.0468 -0.104378,0.0921 -0.158131,0.13643 -0.05375,0.0443 -0.108445,0.0874 -0.16433,0.12919 -0.05588,0.0417 -0.11312,0.0824 -0.171048,0.12144 -0.05793,0.0391 -0.116853,0.0769 -0.176733,0.11317 -0.05988,0.0363 -0.120677,0.0709 -0.18242,0.10439 -0.06174,0.0335 -0.1240685,0.0656 -0.1875843,0.0961 -0.063516,0.0305 -0.1280716,0.0593 -0.1932702,0.0868 -0.065199,0.0275 -0.1311275,0.0537 -0.1979216,0.078 -0.066791,0.0244 -0.134276,0.0471 -0.2025703,0.0682 -0.068297,0.0212 -0.1375145,0.0405 -0.2072216,0.0584 -0.06971,0.0179 -0.1403244,0.0341 -0.2113571,0.0486 -0.071033,0.0145 -0.1427083,0.0273 -0.214974,0.0382 -0.072266,0.011 -0.1446662,0.0205 -0.2180749,0.0279 -0.073409,0.007 -0.1477459,0.0128 -0.2222076,0.0165 -0.074464,0.004 -0.1493653,0.006 -0.2247927,0.006 h 3.0370223 c 2.413675,0 4.356841,-1.94316 4.356841,-4.35684 v -47.22126 c 0,-2.41367 -1.943166,-4.35684 -4.356841,-4.35684 z"
         sodipodi:nodetypes="cssscsscsscssssscsssssssssssssssssssssssssssssssssssccssssccssccccssssc" />
      <path
         id="path102600"
         style="font-variation-settings:normal;opacity:1;fill:#ff6600;fill-opacity:1;stroke:none;stroke-width:0.765;stroke-linecap:butt;stroke-linejoin:miter;stroke-miterlimit:4;stroke-dasharray:none;stroke-dashoffset:0;stroke-opacity:1;stop-color:#000000;stop-opacity:1"
         d="M -4.394208,299.30206 H 7.9438945 c 0.075427,0 0.1503283,-0.002 0.2247926,-0.006 0.074462,-0.004 0.148799,-0.009 0.2222077,-0.0165 0.073409,-0.007 0.1458092,-0.0169 0.2180748,-0.0279 0.072266,-0.011 0.1439413,-0.0238 0.214974,-0.0382 0.071033,-0.0145 0.1416473,-0.0307 0.2113571,-0.0486 0.069707,-0.0179 0.1389248,-0.0372 0.2072217,-0.0584 0.068294,-0.0211 0.1357788,-0.0439 0.2025703,-0.0682 0.066794,-0.0244 0.1327229,-0.0505 0.1979215,-0.078 0.065199,-0.0275 0.1297543,-0.0563 0.1932702,-0.0868 0.063516,-0.0305 0.1258411,-0.0627 0.1875846,-0.0961 0.06174,-0.0335 0.122539,-0.0681 0.182419,-0.10439 0.05988,-0.0363 0.118806,-0.0741 0.176734,-0.11317 0.05793,-0.0391 0.115163,-0.0797 0.171048,-0.12144 0.05588,-0.0417 0.110577,-0.0849 0.16433,-0.12919 0.05375,-0.0443 0.106601,-0.0896 0.158131,-0.13642 0.05153,-0.0468 0.101677,-0.095 0.150894,-0.14418 0.04922,-0.0492 0.09736,-0.0994 0.144177,-0.1509 0.04682,-0.0515 0.09262,-0.10437 0.136943,-0.15813 0.04433,-0.0537 0.08693,-0.10844 0.128675,-0.16433 0.04174,-0.0559 0.08237,-0.11312 0.121441,-0.17105 0.03907,-0.0579 0.07686,-0.11685 0.113171,-0.17673 0.03631,-0.0599 0.07093,-0.12067 0.104386,-0.18242 0.03346,-0.0617 0.0656,-0.12458 0.09612,-0.1881 0.03052,-0.0635 0.05985,-0.12755 0.08733,-0.19275 0.02748,-0.0652 0.05315,-0.13113 0.07752,-0.19792 0.02436,-0.0668 0.04706,-0.1348 0.06821,-0.20309 0.02115,-0.0683 0.04106,-0.137 0.05891,-0.20671 0.01785,-0.0697 0.0336,-0.14032 0.04806,-0.21136 0.01446,-0.071 0.02726,-0.1427 0.03824,-0.21497 0.01098,-0.0723 0.02049,-0.14518 0.0279,-0.21859 0.0074,-0.0734 0.01279,-0.14723 0.01654,-0.22169 0.0037,-0.0745 0.0057,-0.14937 0.0057,-0.22479 v -47.2209 c 0,-0.0754 -0.0019,-0.15032 -0.0057,-0.22479 -0.0038,-0.0745 -0.0091,-0.14828 -0.01654,-0.22169 -0.0074,-0.0734 -0.01692,-0.14633 -0.0279,-0.21859 -0.01098,-0.0723 -0.02378,-0.14394 -0.03824,-0.21497 -0.01446,-0.071 -0.03021,-0.14165 -0.04806,-0.21136 -0.01785,-0.0697 -0.03776,-0.13841 -0.05891,-0.20671 -0.02115,-0.0683 -0.04385,-0.13578 -0.06821,-0.20257 -0.02437,-0.0668 -0.05003,-0.13324 -0.07752,-0.19844 -0.02749,-0.0652 -0.05682,-0.12923 -0.08733,-0.19275 -0.03052,-0.0635 -0.06266,-0.12636 -0.09612,-0.1881 -0.03346,-0.0617 -0.06808,-0.12254 -0.104386,-0.18242 -0.03631,-0.0599 -0.0741,-0.11881 -0.113171,-0.17673 -0.03907,-0.0579 -0.0797,-0.11465 -0.121441,-0.17054 -0.04174,-0.0559 -0.08435,-0.11109 -0.128675,-0.16484 -0.04432,-0.0537 -0.09013,-0.10609 -0.136943,-0.15762 -0.04682,-0.0515 -0.09496,-0.10219 -0.144177,-0.15141 -0.04922,-0.0492 -0.09936,-0.0974 -0.150894,-0.14417 -0.05153,-0.0468 -0.104378,-0.0921 -0.158131,-0.13643 -0.05375,-0.0443 -0.108445,-0.0874 -0.16433,-0.12919 -0.05588,-0.0417 -0.11312,-0.0824 -0.171048,-0.12144 -0.05793,-0.0391 -0.116853,-0.0769 -0.176734,-0.11317 -0.05988,-0.0363 -0.120676,-0.0709 -0.182419,-0.10439 -0.061743,-0.0335 -0.1240687,-0.0656 -0.1875846,-0.0961 -0.063516,-0.0305 -0.1280716,-0.0593 -0.1932702,-0.0868 -0.065199,-0.0275 -0.1311275,-0.0537 -0.1979215,-0.078 -0.066791,-0.0244 -0.1342761,-0.0471 -0.2025703,-0.0682 -0.068297,-0.0211 -0.1375146,-0.0405 -0.2072217,-0.0584 -0.06971,-0.0179 -0.1403244,-0.0341 -0.2113571,-0.0486 -0.071033,-0.0145 -0.1427083,-0.0273 -0.214974,-0.0382 -0.072266,-0.011 -0.1446662,-0.02 -0.2180748,-0.0274 -0.073409,-0.007 -0.147746,-0.0133 -0.2222077,-0.017 -0.074464,-0.004 -0.1493652,-0.006 -0.2247926,-0.006 H -4.394208 c -2.4136746,0 -4.3568381,1.94316 -4.3568381,4.35683 v 47.2209 c 0,2.41367 1.9431635,4.35684 4.3568381,4.35684 z"
         sodipodi:nodetypes="csscscsccsscsssssssssssssssssssscssssssssssssssssssssccsssscssscccsssscc" />
      <path
         id="path102602"
         style="opacity:1;stroke-width:0.765;stop-color:#000000;stop-opacity:1"
         d="m 0.25648594,281.80981 c 1.66e-6,1.31947 -1.06963843,2.38911 -2.38910694,2.38911 -1.3194685,0 -2.3891087,-1.06964 -2.389107,-2.38911 -1.7e-6,-1.31947 1.0696385,-2.38911 2.389107,-2.38911 1.31946851,0 2.3891086,1.06964 2.38910694,2.38911 z"
         sodipodi:nodetypes="sssss" />
      <path
         id="path102604"
         style="opacity:1;stroke-width:0.251932;stop-color:#000000;stop-opacity:1"
         d="m 9.4942887,287.10278 c 7e-7,2.59182 -1.3827184,4.98676 -3.6273001,6.28267 -2.2445811,1.29591 -5.0100191,1.29591 -7.2546002,0 -2.2445816,-1.29591 -3.6273006,-3.69085 -3.6272998,-6.28267 h 7.2546 z"
         sodipodi:nodetypes="cssccc" />
      <path
         id="path102606"
         style="opacity:1;stroke-width:0.765;stop-color:#000000;stop-opacity:1"
         d="m 8.9789884,281.80981 c 1.7e-6,1.31947 -1.0696385,2.38911 -2.389107,2.38911 -1.3194685,0 -2.3891087,-1.06964 -2.389107,-2.38911 -1.7e-6,-1.31947 1.0696385,-2.38911 2.389107,-2.38911 1.3194685,0 2.3891087,1.06964 2.389107,2.38911 z"
         sodipodi:nodetypes="sssss" />
      <path
         id="path102608"
         style="opacity:1;fill:#004800;fill-opacity:1;stroke:none;stroke-width:0.765003;stop-color:#000000;stop-opacity:1"
         d="m 11.241016,234.32308 v 2.85253 c -1.8e-5,0.0465 -5.51e-4,0.093 -0.0016,0.13953 -0.0011,0.0464 -0.0026,0.0927 -0.0047,0.13901 -0.0021,0.0464 -0.0047,0.0927 -0.0078,0.13901 -0.0031,0.0462 -0.0067,0.0924 -0.01085,0.13849 -0.0041,0.0462 -0.0088,0.0924 -0.01395,0.1385 -0.005,0.0462 -0.01051,0.0924 -0.01654,0.13849 -0.0062,0.0461 -0.01292,0.0921 -0.02015,0.13798 -0.0071,0.0457 -0.01466,0.0914 -0.02274,0.13694 -0.0083,0.0457 -0.01707,0.0914 -0.02636,0.13694 -0.0091,0.0454 -0.01879,0.0907 -0.02894,0.13591 -0.01018,0.0454 -0.02086,0.0907 -0.03204,0.13591 -0.01122,0.0449 -0.02293,0.0897 -0.03514,0.13436 -0.01208,0.0447 -0.02465,0.0894 -0.03772,0.13384 -0.01329,0.0446 -0.02707,0.089 -0.04134,0.13332 -0.01415,0.0443 -0.02879,0.0884 -0.04392,0.1323 -0.01502,0.0437 -0.03053,0.0873 -0.04651,0.13074 -0.01606,0.0436 -0.03259,0.087 -0.04961,0.13022 -0.0171,0.0431 -0.03467,0.086 -0.05271,0.12868 -0.01796,0.0429 -0.03639,0.0856 -0.05529,0.12815 -0.019,0.0422 -0.03846,0.0843 -0.05839,0.1261 -0.01986,0.0419 -0.04019,0.0836 -0.06098,0.12505 -0.02073,0.0416 -0.04192,0.0829 -0.06356,0.12402 -0.02177,0.0411 -0.04399,0.0819 -0.06667,0.12248 -0.02264,0.0404 -0.04572,0.0805 -0.06925,0.1204 -0.0235,0.04 -0.04745,0.0798 -0.07183,0.11938 -0.02437,0.0395 -0.04918,0.0788 -0.07442,0.11782 -0.02524,0.0389 -0.05091,0.0774 -0.077,0.11575 -0.02611,0.0384 -0.05263,0.0764 -0.07958,0.11421 -0.02697,0.0378 -0.05436,0.0754 -0.082164,0.11265 -0.02767,0.0372 -0.055749,0.074 -0.084233,0.11059 -0.02871,0.0365 -0.057823,0.0727 -0.087334,0.10852 -0.029404,0.036 -0.059206,0.0716 -0.0894,0.10697 -0.030101,0.0353 -0.060592,0.0703 -0.091467,0.10491 -0.030973,0.0344 -0.062325,0.0686 -0.094051,0.10231 -0.031667,0.0339 -0.063709,0.0675 -0.09612,0.10077 -0.032534,0.0333 -0.065436,0.0662 -0.0987,0.0987 -0.033063,0.0324 -0.066483,0.0644 -0.1002532,0.0961 -0.033931,0.0317 -0.068211,0.063 -0.1028356,0.094 -0.034629,0.0309 -0.069598,0.0614 -0.104902,0.0915 -0.035155,0.0302 -0.070642,0.06 -0.1064551,0.0894 -0.036024,0.0293 -0.072372,0.0583 -0.1090375,0.0868 -0.036549,0.0286 -0.073414,0.0569 -0.1105879,0.0847 -0.037075,0.0278 -0.074456,0.0552 -0.1121357,0.0822 -0.037774,0.0269 -0.075846,0.0535 -0.1142074,0.0796 -0.038471,0.0261 -0.077231,0.0518 -0.1162711,0.077 -0.038827,0.0252 -0.077931,0.05 -0.1173057,0.0744 -0.039524,0.0244 -0.079318,0.0483 -0.119372,0.0718 -0.040051,0.0235 -0.080361,0.0466 -0.1209226,0.0692 -0.040579,0.0225 -0.081406,0.0445 -0.1224729,0.0661 -0.040932,0.0218 -0.082103,0.0432 -0.1235075,0.0641 -0.041459,0.0208 -0.083147,0.0411 -0.1250554,0.061 -0.041988,0.0198 -0.084193,0.0391 -0.1266084,0.0579 -0.04234,0.0191 -0.084889,0.0377 -0.1276403,0.0558 -0.04287,0.0179 -0.085936,0.0353 -0.1291907,0.0522 -0.043051,0.0172 -0.08629,0.0339 -0.1297093,0.0501 -0.04358,0.016 -0.087335,0.0315 -0.1312572,0.0465 -0.043934,0.0151 -0.088034,0.0297 -0.1322916,0.0439 -0.044118,0.0141 -0.08839,0.0277 -0.1328076,0.0408 -0.044472,0.0132 -0.089089,0.026 -0.1338422,0.0382 -0.044828,0.0122 -0.08979,0.0239 -0.1348766,0.0351 -0.045012,0.0112 -0.090145,0.0218 -0.1353926,0.032 -0.045367,0.0101 -0.090844,0.0198 -0.1364245,0.0289 -0.045379,0.009 -0.090858,0.0177 -0.1364271,0.0258 -0.045732,0.008 -0.091555,0.016 -0.1374589,0.0233 -0.045918,0.007 -0.091912,0.0136 -0.1379749,0.0196 -0.045928,0.006 -0.091924,0.0119 -0.1379776,0.0171 -0.046112,0.005 -0.092279,0.01 -0.1384935,0.0139 -0.046295,0.004 -0.092634,0.008 -0.1390094,0.0109 -0.046306,0.003 -0.092645,0.006 -0.1390095,0.008 -0.046317,0.002 -0.092656,0.004 -0.1390094,0.005 -0.0465,0.001 -0.093011,0.002 -0.1395254,0.002 h 1.9233965 c 3.4756898,1.8e-4 6.2933368,-2.81747 6.2931568,-6.29316 v -3.05459 c -0.646394,6.6e-4 -1.290975,0.0684 -1.923396,0.20206 z"
         sodipodi:nodetypes="ccsssscccccsccccssccccccccscsscccccccsccccccccccscccccccccsccscsccccscsscccccc" />
      <path
         id="path102610"
         style="opacity:1;fill:#008000;stroke:none;stroke-width:0.765003;stop-color:#000000;stop-opacity:1"
         d="m 3.817178,243.46877 h 1.130681 c 0.046514,-1.5e-4 0.093026,-8.2e-4 0.1395254,-0.002 0.046353,-0.001 0.092693,-0.003 0.1390094,-0.005 0.046365,-0.002 0.092704,-0.005 0.1390095,-0.008 0.046375,-0.003 0.092715,-0.007 0.1390094,-0.0109 0.046214,-0.004 0.092382,-0.009 0.1384935,-0.0139 0.046054,-0.005 0.092049,-0.0109 0.1379776,-0.0171 0.046063,-0.006 0.092057,-0.0126 0.1379749,-0.0196 0.045904,-0.007 0.091727,-0.015 0.1374589,-0.0233 0.045569,-0.008 0.091048,-0.0167 0.1364271,-0.0258 0.04558,-0.009 0.091058,-0.0188 0.1364245,-0.0289 0.045247,-0.0102 0.090381,-0.0208 0.1353926,-0.032 0.045087,-0.0112 0.090049,-0.0229 0.1348766,-0.0351 0.044753,-0.0122 0.08937,-0.025 0.1338422,-0.0382 0.044418,-0.0131 0.08869,-0.0267 0.1328076,-0.0408 0.044258,-0.0141 0.088358,-0.0288 0.1322916,-0.0439 0.043923,-0.015 0.087678,-0.0305 0.1312572,-0.0465 0.04342,-0.0162 0.086659,-0.0329 0.1297093,-0.0501 0.043255,-0.0169 0.086321,-0.0343 0.1291907,-0.0522 0.042751,-0.0181 0.085301,-0.0367 0.1276403,-0.0558 0.042415,-0.0188 0.08462,-0.0381 0.1266084,-0.0579 0.041909,-0.0199 0.083596,-0.0402 0.1250554,-0.061 0.041404,-0.0209 0.082576,-0.0423 0.1235075,-0.0641 0.041067,-0.0216 0.081894,-0.0436 0.1224729,-0.0661 0.040562,-0.0226 0.080872,-0.0457 0.1209226,-0.0692 0.040054,-0.0235 0.079847,-0.0474 0.119372,-0.0718 0.039374,-0.0244 0.078479,-0.0492 0.1173057,-0.0744 0.03904,-0.0252 0.0778,-0.0509 0.1162711,-0.077 0.038361,-0.0261 0.076433,-0.0527 0.1142074,-0.0796 0.03768,-0.027 0.075061,-0.0544 0.1121357,-0.0822 0.037174,-0.0278 0.074039,-0.0561 0.1105879,-0.0847 0.036665,-0.0285 0.073013,-0.0575 0.1090375,-0.0868 0.035813,-0.0294 0.0713,-0.0592 0.1064551,-0.0894 0.035304,-0.0301 0.070273,-0.0606 0.104902,-0.0915 0.034624,-0.031 0.068905,-0.0623 0.1028356,-0.094 0.03377,-0.0317 0.06719,-0.0637 0.1002532,-0.0961 0.033264,-0.0325 0.066166,-0.0654 0.0987,-0.0987 0.032411,-0.0332 0.064453,-0.0668 0.09612,-0.10077 0.031726,-0.0338 0.063078,-0.0679 0.094051,-0.10231 0.030875,-0.0346 0.061366,-0.0696 0.091467,-0.10491 0.030194,-0.0353 0.059996,-0.071 0.0894,-0.10697 0.029511,-0.0359 0.058624,-0.072 0.087334,-0.10852 0.028484,-0.0366 0.056563,-0.0734 0.084233,-0.11059 0.027803,-0.0373 0.055193,-0.0748 0.082164,-0.11265 0.02695,-0.0378 0.05348,-0.0759 0.07958,-0.11421 0.02609,-0.0383 0.05176,-0.0769 0.077,-0.11575 0.02524,-0.039 0.05005,-0.0783 0.07442,-0.11782 0.02438,-0.0395 0.04833,-0.0793 0.07183,-0.11938 0.02353,-0.0399 0.04661,-0.08 0.06925,-0.1204 0.02267,-0.0406 0.0449,-0.0814 0.06667,-0.12248 0.02164,-0.0411 0.04283,-0.0824 0.06356,-0.12402 0.02079,-0.0415 0.04111,-0.0832 0.06098,-0.12505 0.01993,-0.0418 0.03939,-0.0839 0.05839,-0.1261 0.0189,-0.0425 0.03734,-0.0852 0.05529,-0.12815 0.01804,-0.0427 0.03561,-0.0856 0.05271,-0.12868 0.01702,-0.0432 0.03355,-0.0866 0.04961,-0.13022 0.01598,-0.0434 0.03149,-0.087 0.04651,-0.13074 0.01513,-0.0439 0.02977,-0.088 0.04392,-0.1323 0.01427,-0.0443 0.02805,-0.0887 0.04134,-0.13332 0.01307,-0.0445 0.02564,-0.0891 0.03772,-0.13384 0.01221,-0.0447 0.02392,-0.0894 0.03514,-0.13436 0.01118,-0.0452 0.02186,-0.0905 0.03204,-0.13591 0.01015,-0.0452 0.01979,-0.0905 0.02894,-0.13591 0.0093,-0.0455 0.01808,-0.0912 0.02636,-0.13694 0.0081,-0.0456 0.01566,-0.0912 0.02274,-0.13694 0.0072,-0.0459 0.01394,-0.0919 0.02015,-0.13798 0.006,-0.0461 0.01154,-0.0923 0.01654,-0.13849 0.0052,-0.0461 0.0098,-0.0923 0.01395,-0.1385 0.0041,-0.0461 0.0077,-0.0923 0.01085,-0.13849 0.0031,-0.0463 0.0057,-0.0926 0.0078,-0.13901 0.0021,-0.0463 0.0036,-0.0927 0.0047,-0.13901 10e-4,-0.0465 0.0016,-0.093 0.0016,-0.13953 v -2.85253 c -4.3258551,0.90963 -7.42309,4.72522 -7.4238272,9.14569 z"
         sodipodi:nodetypes="ccsscsccccscsccscccccccccsccccccccccccccccccsscsccccccccssccccscccccsssscccc" />
      <path
         id="path102612"
         style="opacity:1;fill:#ff6600;stroke-width:0.765;stop-color:#000000;stop-opacity:1"
         d="m -1.0833913,291.40997 h 4.0540247 v 3.9679 h -4.0540247 z"
         sodipodi:nodetypes="ccccc" />
      <path
         id="path102614"
         style="opacity:1;fill:#ffffff;stroke-width:2.89134;stop-color:#000000;stop-opacity:1"
         d="m -4.1900374,246.30267 c 4.1e-6,0.6932 -0.5619481,1.25516 -1.2551526,1.25516 -0.6932045,0 -1.2551566,-0.56196 -1.2551525,-1.25516 1.4e-6,-0.6932 0.5619519,-1.25515 1.2551525,-1.25515 0.6932006,0 1.2551512,0.56195 1.2551526,1.25515 z"
         sodipodi:nodetypes="sssss" />
    </g>
    <g
       id="g102646"
       transform="matrix(1.4750834,0,0,1.4750834,134.56747,-329.15917)">
      <path
         id="path102618"
         style="fill:#008000;stroke:none;stroke-width:0.765002;stop-color:#000000"
         d="m 13.25227,265.99028 v 3.05446 c 0,3.47544 -4.5554088,9.30282 -6.2928338,6.29284 H 3.9049808 v 0 c 0,0 4.18492,-9.3473 9.3472892,-9.3473 z"
         sodipodi:nodetypes="csscsc" />
      <path
         id="path102620"
         style="opacity:1;fill:#004800;fill-opacity:1;stroke:none;stroke-width:0.765003;stop-color:#000000;stop-opacity:1"
         d="m 11.328977,266.19213 v 2.85253 c -1.8e-5,0.0465 -5.51e-4,0.093 -0.0016,0.13953 -0.0011,0.0464 -0.0026,0.0927 -0.0047,0.13901 -0.0021,0.0464 -0.0047,0.0927 -0.0078,0.13901 -0.0031,0.0462 -0.0067,0.0924 -0.01085,0.13849 -0.0041,0.0462 -0.0088,0.0924 -0.01395,0.1385 -0.005,0.0462 -0.01051,0.0924 -0.01654,0.13849 -0.0062,0.0461 -0.01292,0.0921 -0.02015,0.13798 -0.0071,0.0457 -0.01466,0.0914 -0.02274,0.13694 -0.0083,0.0457 -0.01707,0.0914 -0.02636,0.13694 -0.0091,0.0454 -0.01879,0.0907 -0.02894,0.13591 -0.01018,0.0454 -0.02086,0.0907 -0.03204,0.13591 -0.01122,0.0449 -0.02293,0.0897 -0.03514,0.13436 -0.01208,0.0447 -0.02465,0.0894 -0.03772,0.13384 -0.01329,0.0446 -0.02707,0.089 -0.04134,0.13332 -0.01415,0.0443 -0.02879,0.0884 -0.04392,0.1323 -0.01502,0.0437 -0.03053,0.0873 -0.04651,0.13074 -0.01606,0.0436 -0.03259,0.087 -0.04961,0.13022 -0.0171,0.0431 -0.03467,0.086 -0.05271,0.12868 -0.01796,0.0429 -0.03639,0.0856 -0.05529,0.12815 -0.019,0.0422 -0.03846,0.0843 -0.05839,0.1261 -0.01986,0.0419 -0.04019,0.0836 -0.06098,0.12505 -0.02073,0.0416 -0.04192,0.0829 -0.06356,0.12402 -0.02177,0.0411 -0.04399,0.0819 -0.06667,0.12248 -0.02264,0.0404 -0.04572,0.0805 -0.06925,0.1204 -0.0235,0.04 -0.04745,0.0798 -0.07183,0.11938 -0.02437,0.0395 -0.04918,0.0788 -0.07442,0.11782 -0.02524,0.0389 -0.05091,0.0774 -0.077,0.11575 -0.02611,0.0384 -0.05263,0.0764 -0.07958,0.11421 -0.02697,0.0378 -0.05436,0.0754 -0.08216,0.11265 -0.02767,0.0372 -0.05575,0.074 -0.084233,0.11059 -0.02871,0.0365 -0.057823,0.0727 -0.087334,0.10852 -0.029404,0.036 -0.059206,0.0716 -0.0894,0.10697 -0.030101,0.0353 -0.060592,0.0703 -0.091467,0.10491 -0.030973,0.0344 -0.062325,0.0686 -0.094051,0.10231 -0.031667,0.0339 -0.063709,0.0675 -0.09612,0.10077 -0.032534,0.0333 -0.065436,0.0662 -0.0987,0.0987 -0.033063,0.0324 -0.066483,0.0644 -0.1002532,0.0961 -0.033931,0.0317 -0.068211,0.063 -0.1028356,0.094 -0.034629,0.0309 -0.069598,0.0614 -0.104902,0.0915 -0.035155,0.0302 -0.070642,0.06 -0.1064551,0.0894 -0.036024,0.0293 -0.072372,0.0583 -0.1090375,0.0868 -0.036549,0.0286 -0.073414,0.0569 -0.1105879,0.0847 -0.037075,0.0278 -0.074456,0.0552 -0.1121357,0.0822 -0.037774,0.0269 -0.075846,0.0535 -0.1142074,0.0796 -0.038471,0.0261 -0.077231,0.0518 -0.1162711,0.077 -0.038827,0.0252 -0.077931,0.05 -0.1173057,0.0744 -0.039524,0.0244 -0.079318,0.0483 -0.119372,0.0718 -0.040051,0.0235 -0.080361,0.0466 -0.1209226,0.0692 -0.040579,0.0225 -0.081406,0.0445 -0.1224729,0.0661 -0.040932,0.0218 -0.082103,0.0432 -0.1235075,0.0641 -0.041459,0.0208 -0.083147,0.0411 -0.1250554,0.061 -0.041988,0.0198 -0.084193,0.0391 -0.1266084,0.0579 -0.04234,0.0191 -0.084889,0.0377 -0.1276403,0.0558 -0.04287,0.0179 -0.085936,0.0353 -0.1291907,0.0522 -0.043051,0.0172 -0.08629,0.0339 -0.1297093,0.0501 -0.04358,0.016 -0.087335,0.0315 -0.1312572,0.0465 -0.043934,0.0151 -0.088034,0.0297 -0.1322916,0.0439 -0.044118,0.0141 -0.08839,0.0277 -0.1328076,0.0408 -0.044472,0.0132 -0.089089,0.026 -0.1338422,0.0382 -0.044828,0.0122 -0.08979,0.0239 -0.1348766,0.0351 -0.045012,0.0112 -0.090145,0.0218 -0.1353926,0.032 -0.045367,0.0101 -0.090844,0.0198 -0.1364245,0.0289 -0.045379,0.009 -0.090858,0.0177 -0.1364271,0.0258 -0.045732,0.008 -0.091555,0.016 -0.1374589,0.0233 -0.045918,0.007 -0.091912,0.0136 -0.1379749,0.0196 -0.045928,0.006 -0.091924,0.0119 -0.1379776,0.0171 -0.046112,0.005 -0.092279,0.01 -0.1384935,0.0139 -0.046295,0.004 -0.092634,0.008 -0.1390094,0.0109 -0.046306,0.003 -0.092645,0.006 -0.1390095,0.008 -0.046317,0.002 -0.092656,0.004 -0.1390094,0.005 -0.0465,0.001 -0.093011,0.002 -0.1395254,0.002 h 1.9233965 c 3.4756898,1.8e-4 6.2933368,-2.81747 6.2931568,-6.29316 v -3.05459 c -0.646394,6.6e-4 -1.290975,0.0684 -1.923396,0.20206 z"
         sodipodi:nodetypes="ccsssscccccsccccssccccccccscsscccccccsccccccccccscccccccccsccscsccccscsscccccc" />
      <path
         id="path102622"
         style="opacity:1;fill:#008000;stroke:none;stroke-width:0.765003;stop-color:#000000;stop-opacity:1"
         d="M 3.905139,275.33782 H 5.03582 c 0.046514,-1.5e-4 0.093026,-8.2e-4 0.1395254,-0.002 0.046353,-0.001 0.092693,-0.003 0.1390094,-0.005 0.046365,-0.002 0.092704,-0.005 0.1390095,-0.008 0.046375,-0.003 0.092715,-0.007 0.1390094,-0.0109 0.046214,-0.004 0.092382,-0.009 0.1384935,-0.0139 0.046054,-0.005 0.092049,-0.0109 0.1379776,-0.0171 0.046063,-0.006 0.092057,-0.0126 0.1379749,-0.0196 0.045904,-0.007 0.091727,-0.015 0.1374589,-0.0233 0.045569,-0.008 0.091048,-0.0167 0.1364271,-0.0258 0.04558,-0.009 0.091058,-0.0188 0.1364245,-0.0289 0.045247,-0.0102 0.090381,-0.0208 0.1353926,-0.032 0.045087,-0.0112 0.090049,-0.0229 0.1348766,-0.0351 0.044753,-0.0122 0.08937,-0.025 0.1338422,-0.0382 0.044418,-0.0131 0.08869,-0.0267 0.1328076,-0.0408 0.044258,-0.0141 0.088358,-0.0288 0.1322916,-0.0439 0.043923,-0.015 0.087678,-0.0305 0.1312572,-0.0465 0.04342,-0.0162 0.086659,-0.0329 0.1297093,-0.0501 0.043255,-0.0169 0.086321,-0.0343 0.1291907,-0.0522 0.042751,-0.0181 0.085301,-0.0367 0.1276403,-0.0558 0.042415,-0.0188 0.08462,-0.0381 0.1266084,-0.0579 0.041909,-0.0199 0.083596,-0.0402 0.1250554,-0.061 0.041404,-0.0209 0.082576,-0.0423 0.1235075,-0.0641 0.041067,-0.0216 0.081894,-0.0436 0.1224729,-0.0661 0.040562,-0.0226 0.080872,-0.0457 0.1209226,-0.0692 0.040054,-0.0235 0.079847,-0.0474 0.119372,-0.0718 0.039374,-0.0244 0.078479,-0.0492 0.1173057,-0.0744 0.03904,-0.0252 0.0778,-0.0509 0.1162711,-0.077 0.038361,-0.0261 0.076433,-0.0527 0.1142074,-0.0796 0.03768,-0.027 0.075061,-0.0544 0.1121357,-0.0822 0.037174,-0.0278 0.074039,-0.0561 0.1105879,-0.0847 0.036665,-0.0285 0.073013,-0.0575 0.1090375,-0.0868 0.035813,-0.0294 0.0713,-0.0592 0.1064551,-0.0894 0.035304,-0.0301 0.070273,-0.0606 0.104902,-0.0915 0.034624,-0.031 0.068905,-0.0623 0.1028356,-0.094 0.03377,-0.0317 0.06719,-0.0637 0.1002532,-0.0961 0.033264,-0.0325 0.066166,-0.0654 0.0987,-0.0987 0.032411,-0.0332 0.064453,-0.0668 0.09612,-0.10077 0.031726,-0.0338 0.063078,-0.0679 0.094051,-0.10231 0.030875,-0.0346 0.061366,-0.0696 0.091467,-0.10491 0.030194,-0.0353 0.059996,-0.071 0.0894,-0.10697 0.029511,-0.0359 0.058624,-0.072 0.087334,-0.10852 0.028484,-0.0366 0.056563,-0.0734 0.084233,-0.11059 0.0278,-0.0373 0.05519,-0.0748 0.08216,-0.11265 0.02695,-0.0378 0.05348,-0.0759 0.07958,-0.11421 0.02609,-0.0383 0.05176,-0.0769 0.077,-0.11575 0.02524,-0.039 0.05005,-0.0783 0.07442,-0.11782 0.02438,-0.0395 0.04833,-0.0793 0.07183,-0.11938 0.02353,-0.0399 0.04661,-0.08 0.06925,-0.1204 0.02267,-0.0406 0.0449,-0.0814 0.06667,-0.12248 0.02164,-0.0411 0.04283,-0.0824 0.06356,-0.12402 0.02079,-0.0415 0.04111,-0.0832 0.06098,-0.12505 0.01993,-0.0418 0.03939,-0.0839 0.05839,-0.1261 0.0189,-0.0425 0.03734,-0.0852 0.05529,-0.12815 0.01804,-0.0427 0.03561,-0.0856 0.05271,-0.12868 0.01702,-0.0432 0.03355,-0.0866 0.04961,-0.13022 0.01598,-0.0434 0.03149,-0.087 0.04651,-0.13074 0.01513,-0.0439 0.02977,-0.088 0.04392,-0.1323 0.01427,-0.0443 0.02805,-0.0887 0.04134,-0.13332 0.01307,-0.0445 0.02564,-0.0891 0.03772,-0.13384 0.01221,-0.0447 0.02392,-0.0894 0.03514,-0.13436 0.01118,-0.0452 0.02186,-0.0905 0.03204,-0.13591 0.01015,-0.0452 0.01979,-0.0905 0.02894,-0.13591 0.0093,-0.0455 0.01808,-0.0912 0.02636,-0.13694 0.0081,-0.0456 0.01566,-0.0912 0.02274,-0.13694 0.0072,-0.0459 0.01394,-0.0919 0.02015,-0.13798 0.006,-0.0461 0.01154,-0.0923 0.01654,-0.13849 0.0052,-0.0461 0.0098,-0.0923 0.01395,-0.1385 0.0041,-0.0461 0.0077,-0.0923 0.01085,-0.13849 0.0031,-0.0463 0.0057,-0.0926 0.0078,-0.13901 0.0021,-0.0463 0.0036,-0.0927 0.0047,-0.13901 0.001,-0.0465 0.0016,-0.093 0.0016,-0.13953 v -2.85253 c -4.3258548,0.90963 -7.4230897,4.72522 -7.4238269,9.14569 z"
         sodipodi:nodetypes="ccsscsccccscsccscccccccccsccccccccccccccccccsscsccccccccssccccscccccsssscccc" />
      <path
         style="fill:#803300;stroke:none;stroke-width:0.264583px;stroke-linecap:butt;stroke-linejoin:miter;stroke-opacity:1"
         d="m -2.2189172,270.14648 3.737639,7.02652 2.593107,-1.60038 -0.726466,-6.74538 z"
         id="path102624"
         sodipodi:nodetypes="ccccc" />
      <path
         id="path102626"
         style="fill:#803300;stroke:none;stroke-width:0.264583px;stroke-linecap:butt;stroke-linejoin:miter;stroke-opacity:1"
         d="m 1.5042517,269.26998 -3.7232854,0.87643 3.7377554,7.02644 1.1368802,-0.70177 z"
         sodipodi:nodetypes="ccccc" />
      <path
         id="path102628"
         style="fill:#5b2400;fill-opacity:1;stroke:none;stroke-width:0.264583px;stroke-linecap:butt;stroke-linejoin:miter;stroke-opacity:1"
         d="m 1.5042517,269.26998 1.1513502,7.2011 1.4562429,-0.89865 -0.7265697,-6.74532 z"
         sodipodi:nodetypes="ccccc" />
      <path
         id="path102630"
         style="fill:#ff6600;stroke-width:0.765;stop-color:#000000"
         d="M -4.3941154,275.12044 H 32.243346 c 2.413675,0 4.356815,2.79325 4.356815,6.26289 v 1.07249 c 0,3.46964 -1.94314,16.84622 -4.356815,16.84622 H -4.3941154 c -2.4136752,0 -4.3568144,-13.37658 -4.3568144,-16.84622 v -1.07249 c 0,-3.46964 1.9431392,-6.26289 4.3568144,-6.26289 z"
         sodipodi:nodetypes="sssssssss" />
      <path
         id="path102632"
         style="font-variation-settings:normal;opacity:1;fill:#a74300;fill-opacity:1;stroke:none;stroke-width:0.765;stroke-linecap:butt;stroke-linejoin:miter;stroke-miterlimit:4;stroke-dasharray:none;stroke-dashoffset:0;stroke-opacity:1;stop-color:#000000;stop-opacity:1"
         d="m 29.206327,275.11748 c 0.07543,0 0.150329,0.002 0.224793,0.006 0.07446,0.004 0.148799,0.01 0.222208,0.017 0.07341,0.007 0.145809,0.0164 0.218075,0.0274 0.07227,0.011 0.143941,0.0238 0.214974,0.0382 0.07103,0.0145 0.141647,0.0307 0.211357,0.0486 0.06971,0.0179 0.138924,0.0372 0.207221,0.0584 0.06829,0.0212 0.135779,0.0439 0.202571,0.0682 0.06679,0.0244 0.132723,0.0505 0.197921,0.078 0.0652,0.0275 0.129754,0.0563 0.19327,0.0868 0.06352,0.0305 0.125842,0.0627 0.187585,0.0961 0.06174,0.0335 0.122539,0.0681 0.18242,0.10439 0.05988,0.0363 0.118805,0.0741 0.176733,0.11317 0.05793,0.0391 0.115163,0.0797 0.171048,0.12144 0.05588,0.0417 0.110577,0.0849 0.16433,0.12919 0.05375,0.0443 0.106601,0.0896 0.158131,0.13643 0.05153,0.0468 0.101677,0.0949 0.150895,0.14417 0.04922,0.0492 0.09736,0.0999 0.144176,0.15141 0.04682,0.0515 0.09262,0.10386 0.136943,0.15762 0.04433,0.0538 0.08693,0.10896 0.128675,0.16484 0.04174,0.0559 0.08237,0.11261 0.121441,0.17054 0.03907,0.0579 0.07686,0.11685 0.113171,0.17673 0.03631,0.0599 0.07093,0.12068 0.104386,0.18242 0.03346,0.0617 0.0656,0.12458 0.09612,0.1881 0.03052,0.0635 0.05985,0.12755 0.08733,0.19275 0.02749,0.0652 0.05315,0.13165 0.07752,0.19844 0.02436,0.0668 0.04706,0.13428 0.06821,0.20257 0.02115,0.0683 0.04106,0.137 0.05891,0.20671 0.01785,0.0697 0.0336,0.14032 0.04806,0.21135 0.01446,0.071 0.02726,0.14271 0.03824,0.21498 0.01098,0.0723 0.02049,0.14518 0.02791,0.21859 0.0074,0.0734 0.01278,0.14723 0.01654,0.22169 0.0038,0.0745 0.0057,0.14937 0.0057,0.22479 v 15.47089 c 0,0.0754 -0.0019,0.15033 -0.0057,0.2248 -0.0037,0.0745 -0.0091,0.14828 -0.01654,0.22169 -0.0074,0.0734 -0.01693,0.14632 -0.02791,0.21859 -0.01098,0.0723 -0.02378,0.14394 -0.03824,0.21497 -0.01446,0.071 -0.03021,0.14165 -0.04806,0.21136 -0.01785,0.0697 -0.03776,0.13841 -0.05891,0.20671 -0.02115,0.0683 -0.04385,0.13629 -0.06821,0.20308 -0.02437,0.0668 -0.05003,0.13272 -0.07752,0.19793 -0.02749,0.0652 -0.05682,0.12923 -0.08733,0.19275 -0.03052,0.0635 -0.06266,0.12636 -0.09612,0.1881 -0.03346,0.0617 -0.06808,0.12254 -0.104386,0.18242 -0.03631,0.0599 -0.0741,0.1188 -0.113171,0.17673 -0.03907,0.0579 -0.0797,0.11517 -0.121441,0.17105 -0.04174,0.0559 -0.08435,0.11058 -0.128675,0.16433 -0.04432,0.0538 -0.09013,0.1066 -0.136943,0.15813 -0.04681,0.0515 -0.09496,0.10168 -0.144176,0.1509 -0.04922,0.0492 -0.09936,0.0974 -0.150895,0.14417 -0.05153,0.0468 -0.104378,0.0921 -0.158131,0.13643 -0.05375,0.0443 -0.108445,0.0874 -0.16433,0.12919 -0.05588,0.0417 -0.11312,0.0824 -0.171048,0.12144 -0.05793,0.0391 -0.116853,0.0769 -0.176733,0.11317 -0.05988,0.0363 -0.120677,0.0709 -0.18242,0.10439 -0.06174,0.0335 -0.124069,0.0656 -0.187585,0.0961 -0.06352,0.0305 -0.128071,0.0593 -0.19327,0.0868 -0.0652,0.0275 -0.131127,0.0537 -0.197921,0.078 -0.06679,0.0244 -0.134276,0.0471 -0.202571,0.0682 -0.0683,0.0212 -0.137514,0.0405 -0.207221,0.0584 -0.06971,0.0179 -0.140325,0.0341 -0.211357,0.0486 -0.07103,0.0145 -0.142709,0.0273 -0.214974,0.0382 -0.07227,0.011 -0.144667,0.0205 -0.218075,0.0279 -0.07341,0.007 -0.147746,0.0128 -0.222208,0.0165 -0.07446,0.004 -0.149365,0.006 -0.224793,0.006 h 3.037023 c 2.413675,0 4.356841,-1.94316 4.356841,-4.35684 v -15.47126 c 0,-2.41367 -1.943166,-4.35684 -4.356841,-4.35684 z"
         sodipodi:nodetypes="cssscsscsscssssscsssssssssssssssssssssssssssssssssssccssssccssccccssssc" />
      <path
         id="path102634"
         style="font-variation-settings:normal;opacity:1;fill:#ff6600;fill-opacity:1;stroke:none;stroke-width:0.765;stroke-linecap:butt;stroke-linejoin:miter;stroke-miterlimit:4;stroke-dasharray:none;stroke-dashoffset:0;stroke-opacity:1;stop-color:#000000;stop-opacity:1"
         d="m -4.394208,299.30206 h 33.504769 c 0.07543,0 0.150328,-0.002 0.224793,-0.006 0.07446,-0.004 0.148799,-0.009 0.222207,-0.0165 0.07341,-0.007 0.14581,-0.0169 0.218075,-0.0279 0.07227,-0.011 0.143942,-0.0238 0.214974,-0.0382 0.07103,-0.0145 0.141648,-0.0307 0.211357,-0.0486 0.06971,-0.0179 0.138925,-0.0372 0.207222,-0.0584 0.06829,-0.0211 0.135779,-0.0439 0.20257,-0.0682 0.06679,-0.0244 0.132723,-0.0505 0.197922,-0.078 0.0652,-0.0275 0.129754,-0.0563 0.19327,-0.0868 0.06352,-0.0305 0.125841,-0.0627 0.187585,-0.0961 0.06174,-0.0335 0.122539,-0.0681 0.182419,-0.10439 0.05988,-0.0363 0.118806,-0.0741 0.176734,-0.11317 0.05793,-0.0391 0.115163,-0.0797 0.171048,-0.12144 0.05588,-0.0417 0.110577,-0.0849 0.16433,-0.12919 0.05375,-0.0443 0.106601,-0.0896 0.158131,-0.13642 0.05153,-0.0468 0.101677,-0.095 0.150894,-0.14418 0.04922,-0.0492 0.09736,-0.0994 0.144177,-0.1509 0.04682,-0.0515 0.09262,-0.10437 0.136943,-0.15813 0.04433,-0.0537 0.08693,-0.10844 0.128675,-0.16433 0.04174,-0.0559 0.08237,-0.11312 0.121441,-0.17105 0.03907,-0.0579 0.07686,-0.11685 0.113171,-0.17673 0.03631,-0.0599 0.07093,-0.12067 0.104386,-0.18242 0.03346,-0.0617 0.0656,-0.12458 0.09612,-0.1881 0.03052,-0.0635 0.05985,-0.12755 0.08733,-0.19275 0.02748,-0.0652 0.05315,-0.13113 0.07752,-0.19792 0.02436,-0.0668 0.04706,-0.1348 0.06821,-0.20309 0.02115,-0.0683 0.04106,-0.137 0.05891,-0.20671 0.01785,-0.0697 0.0336,-0.14032 0.04806,-0.21136 0.01446,-0.071 0.02726,-0.1427 0.03824,-0.21497 0.01098,-0.0723 0.02049,-0.14518 0.0279,-0.21859 0.0074,-0.0734 0.01279,-0.14723 0.01654,-0.22169 0.0037,-0.0745 0.0057,-0.14937 0.0057,-0.22479 v -15.4709 c 0,-0.0754 -0.0019,-0.15032 -0.0057,-0.22479 -0.0038,-0.0745 -0.0091,-0.14828 -0.01654,-0.22169 -0.0074,-0.0734 -0.01692,-0.14633 -0.0279,-0.21859 -0.01098,-0.0723 -0.02378,-0.14394 -0.03824,-0.21497 -0.01446,-0.071 -0.03021,-0.14165 -0.04806,-0.21136 -0.01785,-0.0697 -0.03776,-0.13841 -0.05891,-0.20671 -0.02115,-0.0683 -0.04385,-0.13578 -0.06821,-0.20257 -0.02437,-0.0668 -0.05003,-0.13324 -0.07752,-0.19844 -0.02749,-0.0652 -0.05682,-0.12923 -0.08733,-0.19275 -0.03052,-0.0635 -0.06266,-0.12636 -0.09612,-0.1881 -0.03346,-0.0617 -0.06808,-0.12254 -0.104386,-0.18242 -0.03631,-0.0599 -0.0741,-0.11881 -0.113171,-0.17673 -0.03907,-0.0579 -0.0797,-0.11465 -0.121441,-0.17054 -0.04174,-0.0559 -0.08435,-0.11109 -0.128675,-0.16484 -0.04432,-0.0537 -0.09013,-0.10609 -0.136943,-0.15762 -0.04682,-0.0515 -0.09496,-0.10219 -0.144177,-0.15141 -0.04922,-0.0492 -0.09936,-0.0974 -0.150894,-0.14417 -0.05153,-0.0468 -0.104378,-0.0921 -0.158131,-0.13643 -0.05375,-0.0443 -0.108445,-0.0874 -0.16433,-0.12919 -0.05588,-0.0417 -0.11312,-0.0824 -0.171048,-0.12144 -0.05793,-0.0391 -0.116853,-0.0769 -0.176734,-0.11317 -0.05988,-0.0363 -0.120676,-0.0709 -0.182419,-0.10439 -0.06174,-0.0335 -0.124069,-0.0656 -0.187585,-0.0961 -0.06352,-0.0305 -0.128072,-0.0593 -0.19327,-0.0868 -0.0652,-0.0275 -0.131128,-0.0537 -0.197922,-0.078 -0.06679,-0.0244 -0.134276,-0.0471 -0.20257,-0.0682 -0.0683,-0.0211 -0.137515,-0.0405 -0.207222,-0.0584 -0.06971,-0.0179 -0.140324,-0.0341 -0.211357,-0.0486 -0.07103,-0.0145 -0.142708,-0.0273 -0.214974,-0.0382 -0.07227,-0.011 -0.144666,-0.02 -0.218075,-0.0274 -0.07341,-0.007 -0.147746,-0.0133 -0.222207,-0.017 -0.07446,-0.004 -0.149365,-0.006 -0.224793,-0.006 H -4.394208 c -2.4136746,0 -4.3568381,1.94316 -4.3568381,4.35683 v 15.4709 c 0,2.41367 1.9431635,4.35684 4.3568381,4.35684 z"
         sodipodi:nodetypes="csscscsccsscsssssssssssssssssssscssssssssssssssssssssccsssscssscccsssscc" />
      <circle
         style="font-variation-settings:normal;opacity:1;fill:#000000;fill-opacity:1;stroke:none;stroke-width:0.765;stroke-linecap:butt;stroke-linejoin:miter;stroke-miterlimit:4;stroke-dasharray:none;stroke-dashoffset:0;stroke-opacity:1;stop-color:#000000;stop-opacity:1"
         id="circle102636"
         cx="-0.81867015"
         cy="282.21118"
         r="2.389107" />
      <path
         style="font-variation-settings:normal;opacity:1;fill:#000000;fill-opacity:1;stroke:none;stroke-width:0.251932;stroke-linecap:butt;stroke-linejoin:miter;stroke-miterlimit:4;stroke-dasharray:none;stroke-dashoffset:0;stroke-opacity:1;stop-color:#000000;stop-opacity:1"
         id="path102638"
         sodipodi:type="arc"
         sodipodi:cx="3.5536394"
         sodipodi:cy="287.50415"
         sodipodi:rx="7.2546"
         sodipodi:ry="7.2546"
         sodipodi:start="0"
         sodipodi:end="3.1415927"
         sodipodi:arc-type="slice"
         d="m 10.808239,287.50415 a 7.2546,7.2546 0 0 1 -3.6272997,6.28267 7.2546,7.2546 0 0 1 -7.25460011,0 7.2546,7.2546 0 0 1 -3.62729979,-6.28267 h 7.2546 z" />
      <circle
         style="font-variation-settings:normal;opacity:1;fill:#000000;fill-opacity:1;stroke:none;stroke-width:0.765;stroke-linecap:butt;stroke-linejoin:miter;stroke-miterlimit:4;stroke-dasharray:none;stroke-dashoffset:0;stroke-opacity:1;stop-color:#000000;stop-opacity:1"
         id="circle102640"
         cx="7.9038324"
         cy="282.21118"
         r="2.389107" />
      <rect
         style="font-variation-settings:normal;opacity:1;fill:#ff6600;fill-opacity:1;stroke:none;stroke-width:0.765;stroke-linecap:butt;stroke-linejoin:miter;stroke-miterlimit:4;stroke-dasharray:none;stroke-dashoffset:0;stroke-opacity:1;stop-color:#000000;stop-opacity:1"
         id="rect102642"
         width="4.0540247"
         height="3.9679"
         x="5.1817193"
         y="286.2536" />
      <path
         id="path102644"
         style="opacity:1;fill:#ffffff;stroke-width:2.89134;stop-color:#000000;stop-opacity:1"
         d="m -4.1020764,278.17172 c 4.1e-6,0.6932 -0.5619481,1.25516 -1.2551526,1.25516 -0.6932045,0 -1.2551566,-0.56196 -1.2551525,-1.25516 1.4e-6,-0.6932 0.5619519,-1.25515 1.2551525,-1.25515 0.6932006,0 1.2551512,0.56195 1.2551526,1.25515 z"
         sodipodi:nodetypes="sssss" />
    </g>
  </g>
</svg>
