<?xml version="1.0" encoding="UTF-8" standalone="no"?>
<!-- Created with Inkscape (http://www.inkscape.org/) -->

<svg
   width="118.02336mm"
   height="159.77782mm"
   viewBox="0 0 118.02336 159.77782"
   version="1.1"
   id="svg5"
   inkscape:version="1.3-dev (1:1.2.0-alpha1+devel+202212031705+4648735e44)"
   sodipodi:docname="Fig_14.2+.svg"
   xmlns:inkscape="http://www.inkscape.org/namespaces/inkscape"
   xmlns:sodipodi="http://sodipodi.sourceforge.net/DTD/sodipodi-0.dtd"
   xmlns:xlink="http://www.w3.org/1999/xlink"
   xmlns="http://www.w3.org/2000/svg"
   xmlns:svg="http://www.w3.org/2000/svg">
  <sodipodi:namedview
     id="namedview7"
     pagecolor="#ffffff"
     bordercolor="#000000"
     borderopacity="0.25"
     inkscape:showpageshadow="2"
     inkscape:pageopacity="0.0"
     inkscape:pagecheckerboard="0"
     inkscape:deskcolor="#d1d1d1"
     inkscape:document-units="mm"
     showgrid="false"
     inkscape:zoom="0.73760075"
     inkscape:cx="121.33936"
     inkscape:cy="353.84997"
     inkscape:window-width="1920"
     inkscape:window-height="1043"
     inkscape:window-x="0"
     inkscape:window-y="0"
     inkscape:window-maximized="1"
     inkscape:current-layer="layer1" />
  <defs
     id="defs2">
    <radialGradient
       inkscape:collect="always"
       xlink:href="#linearGradient2360"
       id="radialGradient2902"
       gradientUnits="userSpaceOnUse"
       gradientTransform="matrix(1.8695854,-0.01250452,0.01845036,2.7585636,-112.28652,-235.45947)"
       cx="126.30584"
       cy="138.8419"
       fx="126.30584"
       fy="138.8419"
       r="10.39892" />
    <linearGradient
       inkscape:collect="always"
       id="linearGradient2360">
      <stop
         style="stop-color:#e7b25a;stop-opacity:1;"
         offset="0"
         id="stop2356" />
      <stop
         style="stop-color:#93790c;stop-opacity:1;"
         offset="0.36124751"
         id="stop2460" />
      <stop
         style="stop-color:#7e6618;stop-opacity:1;"
         offset="0.58295572"
         id="stop2456" />
      <stop
         style="stop-color:#b78e05;stop-opacity:1;"
         offset="1"
         id="stop2358" />
    </linearGradient>
    <radialGradient
       inkscape:collect="always"
       xlink:href="#linearGradient2778"
       id="radialGradient2607"
       gradientUnits="userSpaceOnUse"
       gradientTransform="matrix(0.54593457,0.00301097,-0.02094427,3.7975206,60.19716,-388.82887)"
       cx="126.43348"
       cy="142.93092"
       fx="126.43348"
       fy="142.93092"
       r="10.39892" />
    <linearGradient
       inkscape:collect="always"
       id="linearGradient2778">
      <stop
         style="stop-color:#cbcbcb;stop-opacity:1;"
         offset="0"
         id="stop2770" />
      <stop
         style="stop-color:#707070;stop-opacity:1;"
         offset="0.36124751"
         id="stop2772" />
      <stop
         style="stop-color:#a4a4a4;stop-opacity:1;"
         offset="0.58295572"
         id="stop2774" />
      <stop
         style="stop-color:#5e5e5e;stop-opacity:1;"
         offset="1"
         id="stop2776" />
    </linearGradient>
    <radialGradient
       inkscape:collect="always"
       xlink:href="#linearGradient2894"
       id="radialGradient2884"
       gradientUnits="userSpaceOnUse"
       gradientTransform="matrix(1.4012392,0.01518389,-0.04114821,3.7973554,-44.823963,-390.3416)"
       cx="126.27098"
       cy="147.44804"
       fx="126.27098"
       fy="147.44804"
       r="10.39892" />
    <linearGradient
       inkscape:collect="always"
       id="linearGradient2894">
      <stop
         style="stop-color:#9a9a9a;stop-opacity:1;"
         offset="0"
         id="stop2886" />
      <stop
         style="stop-color:#707070;stop-opacity:1;"
         offset="0.36124751"
         id="stop2888" />
      <stop
         style="stop-color:#a4a4a4;stop-opacity:1;"
         offset="0.58295572"
         id="stop2890" />
      <stop
         style="stop-color:#5e5e5e;stop-opacity:1;"
         offset="1"
         id="stop2892" />
    </linearGradient>
    <radialGradient
       inkscape:collect="always"
       xlink:href="#linearGradient2360"
       id="radialGradient2454"
       cx="126.30584"
       cy="138.8419"
       fx="126.30584"
       fy="138.8419"
       r="10.39892"
       gradientTransform="matrix(1.8695854,-0.01250452,0.01845036,2.7585636,-112.28652,-235.45947)"
       gradientUnits="userSpaceOnUse" />
  </defs>
  <g
     inkscape:label="Layer 1"
     inkscape:groupmode="layer"
     id="layer1"
     transform="translate(-47.468567,-38.646591)">
    <g
       id="g2900"
       transform="matrix(2.1775471,0,0,2.1775471,-167.94084,-200.75026)"
       style="stroke-width:1.18824">
      <path
         id="path2284"
         style="fill:url(#radialGradient2902);fill-opacity:1;stroke-width:0.100784"
         d="m 126.91215,116.83266 -10e-4,7.29413 -0.001,7.29465 0.35967,0.2036 c 2.45495,1.3915 4.37518,4.18666 5.06998,7.38043 0.37758,1.73565 0.43583,4.70674 0.12815,6.5381 -0.35928,2.13846 -1.23239,4.33744 -2.13423,5.37538 l -0.21239,0.24443 -0.23927,-0.22944 c -0.13152,-0.126 -0.30478,-0.37447 -0.38498,-0.55242 l -0.14573,-0.3235 0.46509,-0.66714 c 3.19916,-4.58587 2.79135,-11.73641 -0.89504,-15.69258 -0.49985,-0.53642 -1.76792,-1.55598 -1.93528,-1.55598 -0.13889,0 -0.0931,2.39372 0.0537,2.80965 0.21743,0.61605 0.54618,2.38655 0.67231,3.61993 0.13909,1.36018 0.19242,2.4206 0.30076,6.00377 0.0868,2.87162 0.17318,3.89102 0.43563,5.12372 0.33336,1.56574 0.9252,2.69716 1.95854,3.74499 h -0.001 c 0.3612,0.36626 0.71167,0.66559 0.77877,0.66559 0.15091,0 1.17688,-1.12108 1.83864,-2.00969 2.63856,-3.54302 4.09015,-9.27752 3.63544,-14.35985 -0.41714,-4.66238 -2.27056,-9.90295 -5.26479,-14.88591 -1.22058,-2.03129 -2.71795,-4.08549 -4.01836,-5.51285 z m -1.19838,0.0853 -0.53071,0.56379 c -1.86021,1.97673 -3.99753,5.22729 -5.65289,8.59637 -2.66006,5.41394 -3.79853,10.1451 -3.5543,14.77223 0.27027,5.12046 2.0285,9.72435 4.81314,12.60285 h 5.2e-4 c 0.34975,0.36154 0.67418,0.65732 0.72088,0.65732 0.19297,0 1.47368,-1.44289 1.81126,-2.0407 0.9736,-1.72413 1.2097,-3.27683 1.3808,-9.07025 0.12111,-4.10036 0.32221,-5.99393 0.817,-7.70134 0.18441,-0.63701 0.20383,-0.84779 0.18293,-1.96835 l -0.0232,-1.25522 -0.46664,0.3054 c -0.64682,0.42358 -2.00454,1.80571 -2.47478,2.51923 -0.87595,1.32911 -1.57893,3.05163 -1.90996,4.67827 -0.23503,1.15465 -0.21045,3.99835 0.045,5.18366 0.40139,1.8628 1.05311,3.44179 1.90944,4.62556 l 0.47904,0.66197 -0.13953,0.27079 c -0.18325,0.35583 -0.5399,0.82269 -0.6289,0.82269 -0.1425,0 -0.85562,-1.10873 -1.26245,-1.96268 -0.97935,-2.05568 -1.41534,-4.73139 -1.26453,-7.76283 0.17271,-3.4715 1.33485,-6.22976 3.5109,-8.33489 0.69582,-0.67314 1.96337,-1.61747 2.17093,-1.61747 0.0415,0 0.0723,-3.19211 0.0703,-7.27346 z" />
      <path
         style="font-variation-settings:normal;opacity:1;fill:url(#radialGradient2607);fill-opacity:1;stroke-width:0.100784;stroke-linecap:butt;stroke-linejoin:miter;stroke-miterlimit:4;stroke-dasharray:none;stroke-dashoffset:0;stroke-opacity:1;stop-color:#000000;stop-opacity:1"
         d="m 124.70347,156.81737 c -2.11107,-1.71455 -1.93946,-1.50899 -1.63292,-1.95588 0.63773,-0.92969 1.22864,-2.47573 1.54686,-4.04718 0.30499,-1.50607 0.4247,-3.06978 0.51388,-6.71229 0.0957,-3.90734 0.23175,-5.59447 0.54553,-6.76339 0.22633,-0.84317 0.59811,-1.66842 0.71819,-1.5942 0.16033,0.0991 0.59651,1.32423 0.75674,2.12554 0.23848,1.19261 0.33679,2.57499 0.39495,5.5535 0.089,4.56005 0.28981,6.67762 0.8087,8.52905 0.2766,0.98696 0.82576,2.23692 1.26014,2.86826 l 0.26358,0.38311 -1.71844,1.44539 c -0.94514,0.79496 -1.7566,1.44473 -1.80325,1.44394 -0.0466,-7.6e-4 -0.79093,-0.57492 -1.65396,-1.27585 z m 2.57941,-0.99135 c 0.42414,-0.29551 0.66326,-0.75679 0.66326,-1.27947 0,-0.48848 -0.16302,-0.82984 -0.56474,-1.18256 -0.96537,-0.8476 -2.50829,-0.10679 -2.50829,1.20432 0,1.2526 1.38191,1.97385 2.40977,1.25771 z m -0.23842,-3.95464 c 0.38822,-0.38822 0.40331,-0.85259 0.0409,-1.25822 -0.21249,-0.23781 -0.30346,-0.27699 -0.6431,-0.27699 -0.33963,0 -0.4306,0.0392 -0.64309,0.27699 -0.55122,0.61693 -0.14821,1.5466 0.67045,1.5466 0.2127,0 0.36073,-0.0743 0.57485,-0.28838 z m -0.21318,-2.44971 c 0.18257,-0.14017 0.33192,-0.43517 0.33192,-0.65559 0,-0.23038 -0.4409,-0.6776 -0.66803,-0.6776 -0.67285,0 -1.01377,0.7548 -0.55027,1.2183 0.24308,0.24307 0.65063,0.2959 0.88638,0.11489 z m 0.018,-2.45163 c 0.14926,-0.20082 0.15652,-0.25881 0.0613,-0.48878 -0.18024,-0.43514 -0.81434,-0.46339 -1.00507,-0.0448 -0.13238,0.29054 -0.12834,0.32 0.0801,0.58498 0.23418,0.29771 0.62137,0.27466 0.86372,-0.0514 z m -0.18046,-1.90576 c 0.22121,-0.20018 0.19517,-0.50801 -0.0569,-0.6732 -0.19642,-0.1287 -0.22766,-0.1287 -0.42409,0 -0.24453,0.16022 -0.27438,0.43448 -0.0717,0.65847 0.17419,0.19247 0.3511,0.19718 0.5527,0.0147 z"
         id="path2280" />
      <path
         id="path2806"
         style="font-variation-settings:normal;opacity:1;vector-effect:none;fill:url(#radialGradient2884);fill-opacity:1;stroke-width:0.100784;stroke-linecap:butt;stroke-linejoin:miter;stroke-miterlimit:4;stroke-dasharray:none;stroke-dashoffset:0;stroke-opacity:1;-inkscape-stroke:none;stop-color:#000000;stop-opacity:1"
         d="m 128.09606,167.68175 v 2.75694 2.75642 h 0.55138 0.55139 v -2.16937 -2.16886 l -0.34881,-0.58756 c -0.27624,-0.46499 -0.39117,-0.58757 -0.55139,-0.58757 z m -16.43828,0.76327 -0.0393,2.22673 c -0.0421,2.3848 -0.0869,2.68843 -0.53227,3.59875 -0.12425,0.25394 -0.21235,0.47277 -0.19585,0.48627 0.0165,0.0135 0.10631,0.0683 0.19947,0.12093 h 5.2e-4 c 0.0933,0.0526 0.22672,0.0863 0.29662,0.0749 0.21559,-0.0351 0.9974,-1.16309 1.24385,-1.79472 0.22802,-0.58426 0.23408,-0.64871 0.26458,-2.65566 l 0.0315,-2.05723 h -0.63459 z m 13.89735,0.86764 c -0.74363,0.009 -1.48195,0.41347 -1.80093,1.01855 -0.29044,0.55091 -0.27374,1.41679 0.0377,1.94665 0.27646,0.47029 0.63038,0.74177 1.16065,0.89038 0.73796,0.20681 1.56072,-0.0147 2.07843,-0.55965 0.25916,-0.27281 0.24053,-0.36678 -0.0941,-0.46768 -0.14031,-0.0423 -0.19751,-0.013 -0.24081,0.12351 -0.14713,0.46359 -1.08624,0.66789 -1.51618,0.3297 -0.21273,-0.16733 -0.47646,-0.57528 -0.47646,-0.73691 0,-0.0409 0.32531,-0.0566 0.72295,-0.0357 1.23163,0.0647 1.90703,-0.3451 1.90635,-1.15652 -6e-4,-0.74792 -0.48364,-1.18812 -1.45986,-1.33118 -0.10525,-0.0154 -0.21158,-0.0225 -0.31781,-0.0212 z m 13.93816,0.0119 c -0.81301,0.0113 -1.45862,0.41826 -1.53479,1.09399 -0.0783,0.69507 0.21456,0.95069 1.49397,1.30328 0.39139,0.10786 0.7824,0.2605 0.8692,0.339 0.36066,0.3264 0.0432,0.71003 -0.58756,0.71003 -0.42536,0 -0.63481,-0.0916 -1.00201,-0.43873 l -0.26355,-0.24908 -0.26665,0.22427 c -0.14667,0.12342 -0.26647,0.24981 -0.26613,0.28061 0.001,0.11488 0.61669,0.47008 1.00097,0.57774 0.4473,0.12532 1.26111,0.0799 1.66656,-0.093 0.82029,-0.34991 0.97789,-1.40694 0.27802,-1.86552 -0.10446,-0.0684 -0.54804,-0.22039 -0.98547,-0.33745 -0.43743,-0.11707 -0.86674,-0.27756 -0.95394,-0.35656 -0.38375,-0.34728 -0.043,-0.71055 0.66611,-0.71055 0.40899,0 0.47573,0.0286 0.76894,0.33072 l 0.32091,0.33073 0.29042,-0.23719 c 0.34889,-0.28475 0.29277,-0.40017 -0.32039,-0.66043 -0.40088,-0.17016 -0.80505,-0.24699 -1.17461,-0.24184 z m -7.54579,5.2e-4 c -0.22258,-0.001 -0.44531,0.0264 -0.65319,0.0868 -0.91827,0.26695 -1.36942,0.88459 -1.36942,1.87482 0,0.97767 0.48202,1.63319 1.37872,1.87482 h 5.2e-4 c 0.53224,0.14329 0.66972,0.14157 1.20561,-0.0176 0.30707,-0.0912 0.56853,-0.24658 0.7922,-0.47025 0.33942,-0.33913 0.33907,-0.42945 -0.004,-0.53279 -0.1403,-0.0423 -0.19751,-0.013 -0.24081,0.12351 -0.13591,0.42821 -0.97044,0.64456 -1.47639,0.38292 -0.21151,-0.10937 -0.51625,-0.5728 -0.51625,-0.78548 0,-0.0441 0.31212,-0.0619 0.72295,-0.0403 0.85201,0.0447 1.35585,-0.10552 1.69189,-0.50488 0.26917,-0.31986 0.29313,-0.91779 0.0527,-1.31206 -0.25193,-0.41314 -0.91716,-0.67593 -1.58492,-0.67954 z m -16.22691,0.007 c -0.37381,-0.001 -0.74256,0.0644 -0.99633,0.19689 -1.4975,0.78186 -1.3564,3.03163 0.2248,3.58945 h 5.1e-4 c 0.7878,0.27748 1.75379,0.0544 2.23397,-0.51625 0.24159,-0.28707 0.22811,-0.36699 -0.0775,-0.45889 -0.1297,-0.039 -0.20427,-1.9e-4 -0.28267,0.14625 -0.23594,0.44084 -0.94345,0.61634 -1.44281,0.35811 -0.20868,-0.10791 -0.51615,-0.57221 -0.51624,-0.77979 -2e-5,-0.0397 0.33972,-0.059 0.75447,-0.0429 0.61686,0.024 0.82457,-0.002 1.14257,-0.14262 0.98762,-0.43687 0.98018,-1.66331 -0.0129,-2.14716 -0.27524,-0.13402 -0.65405,-0.20197 -1.02784,-0.20309 z m 20.83955,0.01 c -0.46753,0.005 -0.76647,0.18147 -1.04231,0.61288 -0.0933,0.14591 -0.19161,0.26672 -0.21859,0.26872 -0.027,0.002 -0.1388,-0.18739 -0.24805,-0.42064 -0.15487,-0.33069 -0.24182,-0.42427 -0.39584,-0.42427 h -0.19792 v 1.90841 1.90841 h 0.55138 0.55139 v -1.27485 c 0,-1.40215 0.0796,-1.74503 0.46302,-1.99627 0.31041,-0.20337 0.58954,-0.0594 0.82476,0.42479 l 0.18448,0.37982 0.28164,-0.46716 c 0.15487,-0.25709 0.28164,-0.5026 0.28164,-0.5457 0,-0.15619 -0.56127,-0.36814 -0.99012,-0.37414 -0.0154,-2e-4 -0.0304,-1.5e-4 -0.0455,0 z m -13.61261,0.0475 c -0.0368,3.1e-4 -0.0784,0.002 -0.12505,0.006 l -0.35399,0.0258 -0.29817,1.29191 c -0.16379,0.71045 -0.3189,1.27058 -0.3452,1.24488 -0.0263,-0.0257 -0.1822,-0.60714 -0.34623,-1.29191 l -0.29817,-1.24488 h -0.50437 -0.50436 l -0.24856,1.25315 c -0.13653,0.68929 -0.26485,1.23686 -0.28525,1.21646 -0.0204,-0.0204 -0.17704,-0.5848 -0.3483,-1.25367 l -0.31161,-1.21594 -0.5302,-0.0253 c -0.29156,-0.0139 -0.5302,0.005 -0.5302,0.0408 0,0.0621 0.89888,3.424 0.97668,3.65301 0.0233,0.0684 0.20997,0.10593 0.5271,0.10593 h 0.49093 l 0.29145,-1.10019 c 0.1603,-0.60512 0.31258,-1.07971 0.33848,-1.05471 0.0259,0.025 0.16184,0.51058 0.30179,1.079 l 0.25425,1.03353 h 0.49971 0.49971 l 0.53899,-1.78129 c 0.2964,-0.97965 0.53924,-1.83087 0.5395,-1.89187 2.5e-4,-0.0632 -0.0695,-0.0918 -0.22893,-0.0904 z m 2.77296,0.41342 c 0.41767,0 0.7643,0.37064 0.7643,0.81752 0,0.40509 -0.13147,0.61684 -0.47078,0.75861 -0.27662,0.1156 -0.66067,0.13469 -1.17047,0.0584 -0.22749,-0.034 -0.23825,-0.0542 -0.18655,-0.34778 0.15526,-0.88148 0.49061,-1.28674 1.0635,-1.28674 z m 6.28851,0 c 0.86355,0 1.15918,1.2448 0.37362,1.57303 -0.28333,0.1183 -0.66482,0.13829 -1.17823,0.0615 -0.23677,-0.0354 -0.24061,-0.0446 -0.18241,-0.43253 0.11082,-0.73908 0.49116,-1.20199 0.98702,-1.20199 z m -16.2016,0.002 c 0.86975,-0.005 1.15534,1.24544 0.36019,1.57768 -0.26853,0.1121 -0.78355,0.13611 -1.20768,0.0558 -0.18586,-0.0352 -0.19736,-0.0671 -0.14986,-0.41393 0.10429,-0.76084 0.47678,-1.21656 0.99735,-1.21956 z" />
      <path
         id="path2278"
         style="font-variation-settings:normal;opacity:1;vector-effect:none;fill:url(#radialGradient2454);fill-opacity:1;stroke-width:0.100784;stroke-linecap:butt;stroke-linejoin:miter;stroke-miterlimit:4;stroke-dasharray:none;stroke-dashoffset:0;stroke-opacity:1;-inkscape-stroke:none;stop-color:#000000;stop-opacity:1"
         d="m 129.6231,160.30236 v 3.39256 3.39307 h 0.67851 0.67851 v -2.682 -2.68149 l -0.40308,-0.71056 c -0.37537,-0.66205 -0.42168,-0.71055 -0.67851,-0.71106 z m 3.22409,0.25425 c -0.64262,0 -0.98675,0.71236 -0.5886,1.21853 0.38112,0.48452 1.26608,0.16443 1.26608,-0.45785 0,-0.31385 -0.39791,-0.76068 -0.67748,-0.76068 z m -5.68389,0.17001 v 1.11725 1.11724 l -0.19224,-0.18035 c -0.69444,-0.6524 -1.98283,-0.56223 -2.73627,0.1912 -0.44946,0.44946 -0.63407,0.98106 -0.63407,1.82728 0,0.55626 0.0377,0.72525 0.26149,1.17306 0.27906,0.55843 0.72448,0.9442 1.27124,1.10122 v 5.2e-4 c 0.45549,0.13078 0.9391,0.10883 1.30948,-0.0594 0.34573,-0.15706 0.8899,-0.69673 0.8909,-0.88418 4.4e-4,-0.0567 0.15366,0.13794 0.34055,0.43253 0.29729,0.46861 0.36862,0.53241 0.57154,0.50901 l 0.23203,-0.0263 0.0222,-3.1595 0.0222,-3.1595 h -0.67955 z m -17.43046,0.46664 c -0.85003,0 -0.97561,0.021 -1.41594,0.2372 -0.55458,0.27234 -0.82852,0.639 -0.92552,1.23971 -0.18169,1.12474 0.40123,1.67352 2.33577,2.19935 1.20403,0.32725 1.53048,0.6498 1.22887,1.21337 -0.22078,0.41252 -1.20116,0.54003 -1.82676,0.23719 -0.33667,-0.16298 -0.80819,-0.6141 -1.01131,-0.9679 -0.0787,-0.13703 -0.1287,-0.10537 -0.46354,0.29456 l -0.37517,0.44803 0.33641,0.29249 c 0.42466,0.36904 0.73428,0.53287 1.26918,0.67179 0.24772,0.0644 0.74205,0.0989 1.18855,0.0827 1.48458,-0.0537 2.23983,-0.65426 2.24483,-1.78491 0.004,-0.92646 -0.61901,-1.43915 -2.30735,-1.89807 -1.16481,-0.3166 -1.33791,-0.42833 -1.33791,-0.86455 0,-0.22851 0.0551,-0.38578 0.17519,-0.49764 0.29984,-0.27935 1.06281,-0.35488 1.54512,-0.15297 0.25698,0.10758 0.74566,0.59054 0.9648,0.95292 0.0923,0.15257 0.12435,0.13786 0.50075,-0.23255 l 0.40204,-0.39584 -0.33125,-0.30592 c -0.18195,-0.16842 -0.54028,-0.41026 -0.79685,-0.53744 -0.42262,-0.20945 -0.55468,-0.23151 -1.39991,-0.23151 z m 10.94765,1.14463 c -1.40277,1.6e-4 -2.41656,0.98449 -2.42156,2.35077 -0.004,1.20427 0.69138,2.10987 1.8402,2.39571 0.39958,0.0994 1.23491,0.0311 1.62729,-0.1328 0.42094,-0.17588 0.83634,-0.51136 0.98237,-0.79375 0.12289,-0.23767 0.11999,-0.24388 -0.14263,-0.33538 -0.25143,-0.0876 -0.28295,-0.075 -0.5147,0.20619 -0.3196,0.38775 -0.64441,0.55025 -1.09709,0.54983 -0.4734,-4.1e-4 -0.86314,-0.24206 -1.0821,-0.67127 -0.26991,-0.52882 -0.23997,-0.61456 0.18759,-0.53796 1.06268,0.19049 1.97588,-0.002 2.50062,-0.52658 0.34114,-0.34109 0.36173,-0.38976 0.36173,-0.84387 0,-0.26503 -0.0557,-0.58984 -0.12402,-0.72192 -0.30878,-0.59711 -1.07984,-0.93905 -2.1177,-0.93897 z m 16.8491,0.002 c -0.71826,-0.003 -1.31361,0.32139 -1.59939,0.87075 -0.0675,0.12984 -0.15565,0.21559 -0.19585,0.19069 -0.0402,-0.0248 -0.1916,-0.25503 -0.33641,-0.5116 -0.22733,-0.4028 -0.29768,-0.46664 -0.51677,-0.46664 h -0.25373 v 2.33267 2.33216 h 0.6718 0.67179 l 0.0279,-1.54771 c 0.0265,-1.46838 0.0386,-1.56742 0.23978,-1.92236 0.31388,-0.5539 0.59751,-0.73609 0.99219,-0.63769 0.66005,0.16452 0.89367,0.9691 0.7121,2.45412 -0.057,0.4665 -0.21688,1.18729 -0.35502,1.60197 -0.13812,0.41468 -0.24079,0.76204 -0.22789,0.77204 0.0129,0.01 0.1,0.0611 0.19327,0.11317 0.24326,0.13587 0.24578,0.13477 0.59583,-0.25269 0.43326,-0.47956 0.93047,-1.57669 1.10381,-2.435 0.35055,-1.73568 -0.33555,-2.88788 -1.72341,-2.89388 z m 4.68085,0 c -0.31685,0.003 -0.65131,0.0711 -0.92501,0.20051 -0.82306,0.3891 -1.25487,1.11991 -1.25987,2.13062 -0.005,1.02216 0.38399,1.7903 1.10329,2.17971 0.76314,0.41316 1.60133,0.38908 2.13682,-0.0615 0.13714,-0.11541 0.27181,-0.2098 0.29921,-0.2098 0.0795,0 -0.0322,0.77283 -0.1664,1.15135 -0.35533,1.0021 -1.48216,1.22703 -2.19831,0.43873 -0.30594,-0.33677 -0.36338,-0.36632 -0.57258,-0.29662 -0.27681,0.0923 -0.29203,0.21953 -0.0615,0.51263 0.22722,0.28886 0.70746,0.57822 1.18184,0.71262 0.88614,0.25106 2.00533,-0.0631 2.54196,-0.71366 0.55398,-0.67165 0.60048,-0.94991 0.60048,-3.58944 v -2.37195 h -0.24856 c -0.21276,0 -0.28709,0.0686 -0.52193,0.47904 -0.255,0.44569 -0.28212,0.46748 -0.38965,0.31781 -0.2582,-0.35938 -0.58868,-0.65757 -0.84904,-0.76636 -0.18846,-0.0788 -0.42432,-0.116 -0.67076,-0.11369 z m -26.79475,0.0403 c -0.98518,0 -1.3237,0.1322 -1.8588,0.7245 -0.57706,0.63874 -0.76848,1.47286 -0.52813,2.2996 0.24898,0.85646 0.81119,1.41726 1.66191,1.65778 0.49891,0.14106 1.25455,0.076 1.78801,-0.15347 0.38522,-0.16572 1.01544,-0.73396 1.01544,-0.91571 0,-0.0681 -0.51655,-0.29453 -0.55035,-0.24133 -0.37458,0.58964 -0.74031,0.82734 -1.27331,0.82734 -0.60312,0 -1.12621,-0.42672 -1.27693,-1.0418 l -0.0574,-0.23564 0.37001,0.0661 c 0.20368,0.0364 0.64918,0.0602 0.99012,0.0532 1.21288,-0.0255 2.03528,-0.70866 1.94148,-1.61282 -0.0565,-0.54442 -0.3359,-0.91834 -0.89038,-1.19063 -0.43143,-0.21184 -0.57456,-0.23719 -1.33171,-0.23719 z m 16.66669,0.0424 v 2.27635 c 0,1.25178 0.0257,2.30106 0.0568,2.33216 0.0311,0.0311 0.3364,0.0568 0.67851,0.0568 h 0.62219 v -2.33267 -2.33268 h -0.67851 z m -16.55403,0.47284 c 0.47777,-0.005 0.94456,0.33363 1.00924,0.90744 0.0549,0.48714 -0.14622,0.88322 -0.53072,1.04387 -0.45706,0.19094 -1.62092,0.12858 -1.70532,-0.0915 -0.0749,-0.19519 0.21787,-1.16376 0.43977,-1.45469 0.2096,-0.27481 0.50037,-0.40197 0.78703,-0.40515 z m 5.3237,0.006 c 0.11376,-0.002 0.23166,0.0159 0.35089,0.0558 0.40628,0.13616 0.62507,0.4508 0.64337,0.92397 0.0186,0.47989 -0.14095,0.78648 -0.49713,0.9555 -0.26305,0.1248 -1.07209,0.16116 -1.55494,0.0698 -0.18978,-0.0359 -0.19956,-0.0654 -0.15606,-0.48679 0.0934,-0.90503 0.59962,-1.50616 1.21387,-1.51825 z m 21.62091,0.0734 c 0.6765,0 1.05533,0.59391 1.05833,1.65985 0.002,0.78382 -0.17971,1.35982 -0.5209,1.64692 -0.53743,0.45221 -1.29602,0.15091 -1.50378,-0.59738 -0.15014,-0.54066 -0.11469,-1.63819 0.0656,-2.03088 0.22766,-0.49576 0.4703,-0.67851 0.90072,-0.67851 z m -16.4667,0.0248 c 0.41531,0 0.6888,0.21728 0.90434,0.71831 0.36354,0.84507 0.19712,2.20144 -0.31988,2.6081 v 5.2e-4 c -0.28721,0.22559 -0.85934,0.22416 -1.14825,-0.003 -0.342,-0.26901 -0.51097,-0.90738 -0.46767,-1.76837 0.0542,-1.07681 0.37172,-1.55546 1.03146,-1.55546 z" />
    </g>
  </g>
</svg>
